<svg width="300px" height="300px" viewBox="0 0 240 240" version="1.1" xmlns="http://www.w3.org/2000/svg" xmlns:xlink="http://www.w3.org/1999/xlink"><title>Bottt</title><desc>Created with botttsgenerator.com</desc><g id="Bottt" stroke="none" stroke-width="1" fill="none" fill-rule="evenodd"><g id="Circle"><defs><circle id="Circle-path-1" cx="120" cy="120" r="120"></circle><path d="M12,160 C12,226.27417 65.72583,280 132,280 C198.27417,280 252,226.27417 252,160 L264,160 L264,-1.42108547e-14 L-3.19744231e-14,-1.42108547e-14 L-3.19744231e-14,160 L12,160 Z" id="Circle-path-2"></path><path d="M124,144.610951 L124,163 L128,163 L128,163 C167.764502,163 200,195.235498 200,235 L200,244 L0,244 L0,235 C-4.86974701e-15,195.235498 32.235498,163 72,163 L72,163 L76,163 L76,144.610951 C58.7626345,136.422372 46.3722246,119.687011 44.3051388,99.8812385 C38.4803105,99.0577866 34,94.0521096 34,88 L34,74 C34,68.0540074 38.3245733,63.1180731 44,62.1659169 L44,56 L44,56 C44,25.072054 69.072054,5.68137151e-15 100,0 L100,0 L100,0 C130.927946,-5.68137151e-15 156,25.072054 156,56 L156,62.1659169 C161.675427,63.1180731 166,68.0540074 166,74 L166,88 C166,94.0521096 161.51969,99.0577866 155.694861,99.8812385 C153.627775,119.687011 141.237365,136.422372 124,144.610951 Z" id="Circle-path-3"></path></defs><g><g id="Circle" stroke-width="1" fill-rule="evenodd"><mask id="Circle-main-1" fill="white"><use xlink:href="#Circle-path-1"></use></mask><use id="Circle-Background" fill="#E6E6E6" xlink:href="#Circle-path-1"></use><g id="Green" mask="url(#Circle-main-1)" fill="#4CAF50"><rect id="ðŸ–Color" x="0" y="0" width="240" height="240"></rect></g></g><mask id="Circle-main-2" fill="white"><use xlink:href="#Circle-path-1"></use></mask><g id="Bottt" stroke-width="1" fill-rule="evenodd" mask="url(#Circle-main-2)"><g id="Bottt/Head" stroke="none" stroke-width="1" fill="none" fill-rule="evenodd" transform="translate(30.000000, 33.000000)"><g id="Sides" width="180px" height="76px" transform="translate(0.000000, 66.000000)"><g id="Sides/Antenna02" stroke="none" stroke-width="1" fill="none" fill-rule="evenodd"><path d="M152,19 L154.87223,19 C156.655267,19 157.30184,19.1856512 157.953691,19.5342654 C158.605543,19.8828796 159.11712,20.3944567 159.465735,21.0463086 C159.814349,21.6981604 160,22.3447329 160,24.1277704 L160,45.8722296 C160,47.6552671 159.814349,48.3018396 159.465735,48.9536914 C159.11712,49.6055433 158.605543,50.1171204 157.953691,50.4657346 C157.30184,50.8143488 156.655267,51 154.87223,51 L129.12777,51 C127.344733,51 126.69816,50.8143488 126.046309,50.4657346 C125.394457,50.1171204 124.88288,49.6055433 124.534265,48.9536914 C124.185651,48.3018396 124,47.6552671 124,45.8722296 L124,24.1277704 C124,22.3447329 124.185651,21.6981604 124.534265,21.0463086 C124.88288,20.3944567 125.394457,19.8828796 126.046309,19.5342654 C126.69816,19.1856512 127.344733,19 129.12777,19 L150,19 L150,0 L152,0 L152,19 Z M5.1277704,19 L30.8722296,19 C32.6552671,19 33.3018396,19.1856512 33.9536914,19.5342654 C34.6055433,19.8828796 35.1171204,20.3944567 35.4657346,21.0463086 C35.8143488,21.6981604 36,22.3447329 36,24.1277704 L36,45.8722296 C36,47.6552671 35.8143488,48.3018396 35.4657346,48.9536914 C35.1171204,49.6055433 34.6055433,50.1171204 33.9536914,50.4657346 C33.3018396,50.8143488 32.6552671,51 30.8722296,51 L5.1277704,51 C3.34473292,51 2.69816044,50.8143488 2.04630859,50.4657346 C1.39445674,50.1171204 0.882879593,49.6055433 0.534265408,48.9536914 C0.185651222,48.3018396 8.02470732e-17,47.6552671 -1.38112041e-16,45.8722296 L1.38112041e-16,24.1277704 C-8.02470732e-17,22.3447329 0.185651222,21.6981604 0.534265408,21.0463086 C0.882879593,20.3944567 1.39445674,19.8828796 2.04630859,19.5342654 C2.69816044,19.1856512 3.34473292,19 5.1277704,19 Z" id="Sides/Antenna02-path"></path><g id="Ears" transform="translate(10.000000, 9.000000)"><mask id="Sides/Antenna02-mask" fill="white"><use xlink:href="#Sides/Antenna02-path"></use></mask><use fill="#0076DE" xlink:href="#Sides/Antenna02-path"></use><g id="Cyan" mask="url(#Sides/Antenna02-mask)" fill="#00BCD4"><g transform="translate(-10.000000, -9.000000)"><rect x="0" y="0" width="180" height="76"></rect></g></g><rect id="Shadow" fill-opacity="0.1" fill="#000000" mask="url(#Sides/Antenna02-mask)" x="-10" y="29" width="180" height="38"></rect></g><g id="Antenna" transform="translate(157.000000, 1.000000)"><rect fill-opacity="0.4" fill="#FFFFFF" x="3" y="7" width="2" height="20"></rect><circle id="Beep-Boop" fill="#E1E6E8" cx="4" cy="4" r="4"></circle><circle id="Beep-Boop" fill="#FFFFFF" cx="5" cy="3" r="2"></circle></g></g></g><g id="Top" transform="translate(41.000000, 0.000000)" width="100px" height="52px"><g id="Top/Radar" stroke="none" stroke-width="1" fill="none" fill-rule="evenodd"><defs><path d="M47.9411255,31.5810711 C46.4603547,30.7251846 45.0658376,29.6638174 43.7989899,28.3969696 C35.988504,20.5864838 35.988504,7.92318421 43.7989899,0.112698372 L57.2340187,13.5477272 L63.6870876,7.09465837 C62.7811534,5.56075283 62.987153,3.55195222 64.3050865,2.23401872 C65.8671837,0.671921549 68.3998436,0.671921549 69.9619408,2.23401872 C71.5240379,3.79611588 71.5240379,6.3287758 69.9619408,7.89087297 C68.6440073,9.20880647 66.6352067,9.41480612 65.1013011,8.50887193 L58.6482323,14.9619408 L72.0832611,28.3969696 C66.6329618,33.8472689 58.8195836,35.4942501 51.9411255,33.3379131 L51.9411255,52.1126984 L47.9411255,52.1126984 L47.9411255,31.5810711 Z" id="Top/Radar-path"></path></defs><mask id="Top/Radar-mask" fill="white"><use xlink:href="#Top/Radar-path"></use></mask><use id="Radar" fill="#E1E6E8" xlink:href="#Top/Radar-path"></use><g id="DeepOrange" mask="url(#Top/Radar-mask)" fill="#FF5722"><rect x="0" y="0" width="100" height="52"></rect></g><path d="M43.7989899,0.112698372 C35.988504,7.92318421 35.988504,20.5864838 43.7989899,28.3969696 C51.6094757,36.2074555 64.2727753,36.2074555 72.0832611,28.3969696" id="Dish" fill-opacity="0.2" fill="#FFFFFF" mask="url(#Top/Radar-mask)"></path><circle id="Searching..." fill-opacity="0.8" fill="#FFFFFF" mask="url(#Top/Radar-mask)" cx="67.1335137" cy="5.06244584" r="4"></circle></g></g><g id="Face" transform="translate(25.000000, 44.000000)" width="130px" height="120px"><g id="Face/Round-01" stroke="none" stroke-width="1" fill="none" fill-rule="evenodd"><path d="M66,0 C124.351567,0 130.000727,40.6854074 130,78 C129.999351,111.314593 104.534073,120 66,120 C28.5386545,120 2.20992466e-15,111.314593 0,78 C0,40.6854074 7.64843282,6.59631323e-15 66,0 Z" id="Face/Round-01-path"></path><mask id="Face/Round-01-mask" fill="white"><use xlink:href="#Face/Round-01-path"></use></mask><use id="Path-2" fill-opacity="0.8" fill="#000000" xlink:href="#Face/Round-01-path"></use><g id="Red" mask="url(#Face/Round-01-mask)" fill="#F44336"><g transform="translate(-4.000000, -2.000000)"><rect x="0" y="0" width="138" height="124"></rect></g></g><g id="Texture/Dirty01" mask="url(#Face/Round-01-mask)" stroke="none" stroke-width="1" fill="none" fill-rule="evenodd"><path d="M-9.11955629,122.092261 C-4.75864768,91.4015967 3.93799819,117.533631 24.8655794,112.12396 C34.1114596,109.733948 26.640969,99.2957595 33.5369251,94.7717324 C39.3618156,90.9503678 47.2997509,94.0293736 53.9721466,91.5579533 C63.6014225,87.99132 63.4748482,80.7354599 72.4469492,79.6510309 C80.9317383,78.6255016 89.8203396,82.0049911 98.377883,80.7354599 C114.52834,78.3395026 107.906382,46.7111063 120.01742,41.1251889 C132.128458,35.5392715 152.06764,45.1858521 154.677658,61 C156.373936,71.2777829 151.55461,95.5377314 140.21968,133.779846 L-9.11955629,133.779846" id="clean-me" fill-opacity="0.2" fill="#000000"></path><path d="M35.9268464,122 C73.6043905,122 77.5268977,107.25032 96.0650387,100.492846 C114.60318,93.7353716 130.845661,111.213512 137.077849,94.2331339 C141.232642,82.9128816 143.298631,94.895504 143.275816,130.181001 L35.9268464,130.181001 L35.9268464,122 Z" id="clean-me" fill-opacity="0.1" fill="#000000"></path><path d="M-2,4.86732511 C9.73320733,3.74652018 5.96193192,16.806064 10.5973598,16.806064 C12.4464321,16.806064 14.6252877,8.34889769 17.983215,8.34889769 C20.4379638,8.34889769 19.9753096,13.8424996 25.3050084,13.2617118 C30.3076746,12.7165614 29.3753984,9.26870987 31.9026708,9.26870987 C37.3453964,9.26870987 35.2872819,29.4636252 39.6440681,29.4636252 C44.0008542,29.4636252 45.3737266,14.6679622 47.2914382,8.8163548 C49.7180554,1.41189864 64.2635329,-2.73836446 53.8922857,-5.67986809 L-2.28674568,-5.67986809" id="clean-me" fill-opacity="0.4" fill="#000000"></path></g></g></g><g id="Mouth" transform="translate(52.000000, 124.000000)" width="76px" height="32px"><g id="Mouth/Diagram" stroke="none" stroke-width="1" fill="none" fill-rule="evenodd"><rect id="Kiss-The-Robot-Beep-Boop" fill-opacity="0.2" fill="#000000" x="4" y="4" width="68" height="24" rx="5"></rect><rect id="Kiss-The-Robot-Beep-Boop" fill-opacity="0.8" fill="#000000" x="8" y="8" width="60" height="16" rx="2"></rect><polyline id="Path-3" stroke="#4EFAC9" stroke-width="2" stroke-linecap="round" stroke-linejoin="round" points="9 17 20 17 22 13 25 20 29 12 31 21 34 10 37 20 40 17 55 17 58 13 60 20 63 17 67 17"></polyline></g></g><g id="Eyes" transform="translate(38.000000, 76.000000)" width="104px" height="48px"><g id="Eyes/Glow" stroke="none" stroke-width="1" fill="none" fill-rule="evenodd"><circle id="Eye" fill-opacity="0.1" fill="#FFFFFF" cx="21" cy="30" r="15"></circle><circle id="Eye" fill-opacity="0.1" fill="#FFFFFF" cx="83" cy="30" r="15"></circle><circle id="Eye" fill-opacity="0.1" fill="#FFFFFF" cx="21" cy="30" r="12"></circle><circle id="Eye" fill-opacity="0.1" fill="#FFFFFF" cx="83" cy="30" r="12"></circle><circle id="Eye" fill-opacity="0.8" fill="#FFFFFF" cx="21" cy="30" r="6"></circle><circle id="Eye" fill-opacity="0.8" fill="#FFFFFF" cx="83" cy="30" r="6"></circle><circle id="Eye" fill-opacity="0.8" fill="#FFFFFF" cx="21" cy="30" r="3"></circle><circle id="Eye" fill-opacity="0.8" fill="#FFFFFF" cx="83" cy="30" r="3"></circle></g></g></g></g></g></g></g></svg>