<svg width="300px" height="300px" viewBox="0 0 240 240" version="1.1" xmlns="http://www.w3.org/2000/svg" xmlns:xlink="http://www.w3.org/1999/xlink"><title>Bottt</title><desc>Created with botttsgenerator.com</desc><g id="Bottt" stroke="none" stroke-width="1" fill="none" fill-rule="evenodd"><g id="Circle"><defs><circle id="Circle-path-1" cx="120" cy="120" r="120"></circle><path d="M12,160 C12,226.27417 65.72583,280 132,280 C198.27417,280 252,226.27417 252,160 L264,160 L264,-1.42108547e-14 L-3.19744231e-14,-1.42108547e-14 L-3.19744231e-14,160 L12,160 Z" id="Circle-path-2"></path><path d="M124,144.610951 L124,163 L128,163 L128,163 C167.764502,163 200,195.235498 200,235 L200,244 L0,244 L0,235 C-4.86974701e-15,195.235498 32.235498,163 72,163 L72,163 L76,163 L76,144.610951 C58.7626345,136.422372 46.3722246,119.687011 44.3051388,99.8812385 C38.4803105,99.0577866 34,94.0521096 34,88 L34,74 C34,68.0540074 38.3245733,63.1180731 44,62.1659169 L44,56 L44,56 C44,25.072054 69.072054,5.68137151e-15 100,0 L100,0 L100,0 C130.927946,-5.68137151e-15 156,25.072054 156,56 L156,62.1659169 C161.675427,63.1180731 166,68.0540074 166,74 L166,88 C166,94.0521096 161.51969,99.0577866 155.694861,99.8812385 C153.627775,119.687011 141.237365,136.422372 124,144.610951 Z" id="Circle-path-3"></path></defs><g><g id="Circle" stroke-width="1" fill-rule="evenodd"><mask id="Circle-main-1" fill="white"><use xlink:href="#Circle-path-1"></use></mask><use id="Circle-Background" fill="#E6E6E6" xlink:href="#Circle-path-1"></use><g id="Pink" mask="url(#Circle-main-1)" fill="#E91E63"><rect id="ðŸ–Color" x="0" y="0" width="240" height="240"></rect></g></g><mask id="Circle-main-2" fill="white"><use xlink:href="#Circle-path-1"></use></mask><g id="Bottt" stroke-width="1" fill-rule="evenodd" mask="url(#Circle-main-2)"><g id="Bottt/Head" stroke="none" stroke-width="1" fill="none" fill-rule="evenodd" transform="translate(30.000000, 33.000000)"><g id="Sides" width="180px" height="76px" transform="translate(0.000000, 66.000000)"><g id="Sides/Antenna02" stroke="none" stroke-width="1" fill="none" fill-rule="evenodd"><path d="M152,19 L154.87223,19 C156.655267,19 157.30184,19.1856512 157.953691,19.5342654 C158.605543,19.8828796 159.11712,20.3944567 159.465735,21.0463086 C159.814349,21.6981604 160,22.3447329 160,24.1277704 L160,45.8722296 C160,47.6552671 159.814349,48.3018396 159.465735,48.9536914 C159.11712,49.6055433 158.605543,50.1171204 157.953691,50.4657346 C157.30184,50.8143488 156.655267,51 154.87223,51 L129.12777,51 C127.344733,51 126.69816,50.8143488 126.046309,50.4657346 C125.394457,50.1171204 124.88288,49.6055433 124.534265,48.9536914 C124.185651,48.3018396 124,47.6552671 124,45.8722296 L124,24.1277704 C124,22.3447329 124.185651,21.6981604 124.534265,21.0463086 C124.88288,20.3944567 125.394457,19.8828796 126.046309,19.5342654 C126.69816,19.1856512 127.344733,19 129.12777,19 L150,19 L150,0 L152,0 L152,19 Z M5.1277704,19 L30.8722296,19 C32.6552671,19 33.3018396,19.1856512 33.9536914,19.5342654 C34.6055433,19.8828796 35.1171204,20.3944567 35.4657346,21.0463086 C35.8143488,21.6981604 36,22.3447329 36,24.1277704 L36,45.8722296 C36,47.6552671 35.8143488,48.3018396 35.4657346,48.9536914 C35.1171204,49.6055433 34.6055433,50.1171204 33.9536914,50.4657346 C33.3018396,50.8143488 32.6552671,51 30.8722296,51 L5.1277704,51 C3.34473292,51 2.69816044,50.8143488 2.04630859,50.4657346 C1.39445674,50.1171204 0.882879593,49.6055433 0.534265408,48.9536914 C0.185651222,48.3018396 8.02470732e-17,47.6552671 -1.38112041e-16,45.8722296 L1.38112041e-16,24.1277704 C-8.02470732e-17,22.3447329 0.185651222,21.6981604 0.534265408,21.0463086 C0.882879593,20.3944567 1.39445674,19.8828796 2.04630859,19.5342654 C2.69816044,19.1856512 3.34473292,19 5.1277704,19 Z" id="Sides/Antenna02-path"></path><g id="Ears" transform="translate(10.000000, 9.000000)"><mask id="Sides/Antenna02-mask" fill="white"><use xlink:href="#Sides/Antenna02-path"></use></mask><use fill="#0076DE" xlink:href="#Sides/Antenna02-path"></use><g id="BlueGrey" mask="url(#Sides/Antenna02-mask)" fill="#607D8B"><g transform="translate(-10.000000, -9.000000)"><rect x="0" y="0" width="180" height="76"></rect></g></g><rect id="Shadow" fill-opacity="0.1" fill="#000000" mask="url(#Sides/Antenna02-mask)" x="-10" y="29" width="180" height="38"></rect></g><g id="Antenna" transform="translate(157.000000, 1.000000)"><rect fill-opacity="0.4" fill="#FFFFFF" x="3" y="7" width="2" height="20"></rect><circle id="Beep-Boop" fill="#E1E6E8" cx="4" cy="4" r="4"></circle><circle id="Beep-Boop" fill="#FFFFFF" cx="5" cy="3" r="2"></circle></g></g></g><g id="Top" transform="translate(41.000000, 0.000000)" width="100px" height="52px"><g id="Top/K-Bot" stroke="none" stroke-width="1" fill="none" fill-rule="evenodd"><defs><path d="M4,18 C7.32929829,28.5297416 11.995965,34.1964083 18,35" id="Top/K-Bot-path-1"></path><path d="M41,25 C44.3292983,31.1939656 48.995965,34.527299 55,35" id="Top/K-Bot-path-2"></path></defs><g id="Group" transform="translate(11.000000, 0.000000)"><path d="M3,51 L75,51 L75,22 C75,10.3599657 67.4713319,1 58.3043478,1 L19.6956522,1 C10.5286681,1 3,10.3599657 3,22 L3,51 Z" id="Case" stroke-opacity="0.32" stroke="#000000" stroke-width="2" fill-opacity="0.5" fill="#FFFFFF"></path><g id="Plankton" transform="translate(9.000000, 10.000000)"><g id="Arm" stroke-width="3.2"><use stroke="#F79420" xlink:href="#Top/K-Bot-path-1"></use><use stroke-opacity="0.12" stroke="#000000" xlink:href="#Top/K-Bot-path-1"></use></g><g id="Arm" transform="translate(48.000000, 30.000000) scale(-1, 1) translate(-48.000000, -30.000000) " stroke-width="3.2"><use stroke="#F79420" xlink:href="#Top/K-Bot-path-2"></use><use stroke-opacity="0.12" stroke="#000000" xlink:href="#Top/K-Bot-path-2"></use></g><path d="M30,0 L30,0 C37.1797017,-1.31888981e-15 43,5.82029825 43,13 L43,42 L17,42 L17,13 C17,5.82029825 22.8202983,1.31888981e-15 30,0 Z" id="Body" fill="#F79420"></path><rect id="Controller-Stick" fill="#2E3539" x="4" y="5" width="2" height="37"></rect><rect id="Controller-Stick" fill="#2E3539" x="55" y="11" width="2" height="31"></rect><circle id="Controller-Knob" fill="#2E3539" cx="5" cy="6" r="5"></circle><circle id="Controller-Knob" fill="#2E3539" cx="56" cy="15" r="5"></circle><circle id="hand" fill="#F79420" cx="4" cy="16" r="4"></circle><circle id="hand" fill="#F79420" cx="56" cy="24" r="4"></circle><path d="M27.303,8.851 L27.303,20.122 L27.901,20.122 C28.0743342,20.122 28.2173328,20.0981669 28.33,20.0505 C28.4426672,20.0028331 28.5683326,19.9053341 28.707,19.758 L32.867,15.299 C32.9970007,15.1603326 33.1269994,15.0476671 33.257,14.961 C33.3870007,14.8743329 33.5603323,14.831 33.777,14.831 L35.883,14.831 L31.034,19.992 C30.9126661,20.1393341 30.7935006,20.2693328 30.6765,20.382 C30.5594994,20.4946672 30.4273341,20.5943329 30.28,20.681 C30.4360008,20.7850005 30.5768327,20.904166 30.7025,21.0385 C30.8281673,21.172834 30.9473328,21.3266658 31.06,21.5 L36.208,28 L34.128,28 C33.9373324,28 33.774834,27.963167 33.6405,27.8895 C33.506166,27.815833 33.3783339,27.7010008 33.257,27.545 L28.928,22.15 C28.7979993,21.9679991 28.6680006,21.8488336 28.538,21.7925 C28.4079993,21.7361664 28.2130013,21.708 27.953,21.708 L27.303,21.708 L27.303,28 L24.976,28 L24.976,8.851 L27.303,8.851 Z" id="k" fill="#FFFFFF"></path></g><rect id="Bottom" fill="#2E3539" x="0" y="46" width="78" height="6"></rect></g></g></g><g id="Face" transform="translate(25.000000, 44.000000)" width="130px" height="120px"><g id="Face/Square-04" stroke="none" stroke-width="1" fill="none" fill-rule="evenodd"><path d="M0,102 L0,68.8517092 C8.61074282e-15,64.3169266 0.771119772,59.8151606 2.28038666,55.5389045 L19.7614455,12.0092379 C22.3014253,4.81262825 29.1035817,1.42108547e-14 36.7352715,1.42108547e-14 L93.2647285,0 C100.896418,0 107.698575,4.81262825 110.238555,12.0092379 L127.719613,55.5389045 C129.22888,59.8151606 130,64.3169266 130,68.8517092 L130,102 C130,111.941125 121.941125,120 112,120 L18,120 C8.0588745,120 -1.8876423e-14,111.941125 0,102 Z" id="Face/Square-04-path-1"></path><mask id="Face/Square-04-mask-1" fill="white"><use xlink:href="#Face/Square-04-path-1"></use></mask><use id="Shape" fill="#0076DE" xlink:href="#Face/Square-04-path-1"></use><g id="Amber" mask="url(#Face/Square-04-mask-1)" fill="#FFC107"><g transform="translate(-2.000000, -2.000000)"><rect x="0" y="0" width="134" height="124"></rect></g></g><g id="Texture/None" mask="url(#Face/Square-04-mask-1)" stroke="none" stroke-width="1" fill="none" fill-rule="evenodd"></g></g></g><g id="Mouth" transform="translate(52.000000, 124.000000)" width="76px" height="32px"><g id="Mouth/Grill02" stroke="none" stroke-width="1" fill="none" fill-rule="evenodd"><g id="Grill" transform="translate(14.000000, 10.000000)" fill="#000000"><rect id="Grill-Grin" x="14" y="0" width="6" height="14" rx="2"></rect><rect id="Grill-Grin" x="0" y="0" width="6" height="14" rx="2"></rect><rect id="Grill-Grin" x="28" y="0" width="6" height="14" rx="2"></rect><rect id="Grill-Grin" x="42" y="0" width="6" height="14" rx="2"></rect></g></g></g><g id="Eyes" transform="translate(38.000000, 76.000000)" width="104px" height="48px"><g id="Eyes/Frame-1" stroke="none" stroke-width="1" fill="none" fill-rule="evenodd"><rect id="Container" fill-opacity="0.8" fill="#000000" x="0" y="4" width="104" height="42" rx="4"></rect><rect id="Eye" fill="#8BDDFF" x="28" y="25" width="10" height="11" rx="2"></rect><rect id="Eye" fill="#8BDDFF" x="66" y="25" width="10" height="11" rx="2"></rect><polygon id="Reflection" fill-opacity="0.4" fill="#FFFFFF" points="21 4 29 4 12 46 4 46"></polygon></g></g></g></g></g></g></g></svg>