<svg width="300px" height="300px" viewBox="0 0 240 240" version="1.1" xmlns="http://www.w3.org/2000/svg" xmlns:xlink="http://www.w3.org/1999/xlink"><title>Bottt</title><desc>Created with botttsgenerator.com</desc><g id="Bottt" stroke="none" stroke-width="1" fill="none" fill-rule="evenodd"><g id="Circle"><defs><circle id="Circle-path-1" cx="120" cy="120" r="120"></circle><path d="M12,160 C12,226.27417 65.72583,280 132,280 C198.27417,280 252,226.27417 252,160 L264,160 L264,-1.42108547e-14 L-3.19744231e-14,-1.42108547e-14 L-3.19744231e-14,160 L12,160 Z" id="Circle-path-2"></path><path d="M124,144.610951 L124,163 L128,163 L128,163 C167.764502,163 200,195.235498 200,235 L200,244 L0,244 L0,235 C-4.86974701e-15,195.235498 32.235498,163 72,163 L72,163 L76,163 L76,144.610951 C58.7626345,136.422372 46.3722246,119.687011 44.3051388,99.8812385 C38.4803105,99.0577866 34,94.0521096 34,88 L34,74 C34,68.0540074 38.3245733,63.1180731 44,62.1659169 L44,56 L44,56 C44,25.072054 69.072054,5.68137151e-15 100,0 L100,0 L100,0 C130.927946,-5.68137151e-15 156,25.072054 156,56 L156,62.1659169 C161.675427,63.1180731 166,68.0540074 166,74 L166,88 C166,94.0521096 161.51969,99.0577866 155.694861,99.8812385 C153.627775,119.687011 141.237365,136.422372 124,144.610951 Z" id="Circle-path-3"></path></defs><g><g id="Circle" stroke-width="1" fill-rule="evenodd"><mask id="Circle-main-1" fill="white"><use xlink:href="#Circle-path-1"></use></mask><use id="Circle-Background" fill="#E6E6E6" xlink:href="#Circle-path-1"></use><g id="Pink" mask="url(#Circle-main-1)" fill="#E91E63"><rect id="ðŸ–Color" x="0" y="0" width="240" height="240"></rect></g></g><mask id="Circle-main-2" fill="white"><use xlink:href="#Circle-path-1"></use></mask><g id="Bottt" stroke-width="1" fill-rule="evenodd" mask="url(#Circle-main-2)"><g id="Bottt/Head" stroke="none" stroke-width="1" fill="none" fill-rule="evenodd" transform="translate(30.000000, 33.000000)"><g id="Sides" width="180px" height="76px" transform="translate(0.000000, 66.000000)"><g id="Sides/Square" stroke="none" stroke-width="1" fill="none" fill-rule="evenodd"><path d="M11.5374834,16 L24.4625166,16 C28.4743509,16 29.929139,16.4177153 31.3958057,17.2020972 C32.8624723,17.9864791 34.0135209,19.1375277 34.7979028,20.6041943 C35.5822847,22.070861 36,23.5256491 36,27.5374834 L36,48.4625166 C36,52.4743509 35.5822847,53.929139 34.7979028,55.3958057 C34.0135209,56.8624723 32.8624723,58.0135209 31.3958057,58.7979028 C29.929139,59.5822847 28.4743509,60 24.4625166,60 L11.5374834,60 C7.52564907,60 6.070861,59.5822847 4.60419433,58.7979028 C3.13752767,58.0135209 1.98647908,56.8624723 1.20209717,55.3958057 C0.41771525,53.929139 1.80555915e-16,52.4743509 -3.10752092e-16,48.4625166 L3.10752092e-16,27.5374834 C-1.80555915e-16,23.5256491 0.41771525,22.070861 1.20209717,20.6041943 C1.98647908,19.1375277 3.13752767,17.9864791 4.60419433,17.2020972 C6.070861,16.4177153 7.52564907,16 11.5374834,16 Z M127.537483,16 L140.462517,16 C144.474351,16 145.929139,16.4177153 147.395806,17.2020972 C148.862472,17.9864791 150.013521,19.1375277 150.797903,20.6041943 C151.582285,22.070861 152,23.5256491 152,27.5374834 L152,48.4625166 C152,52.4743509 151.582285,53.929139 150.797903,55.3958057 C150.013521,56.8624723 148.862472,58.0135209 147.395806,58.7979028 C145.929139,59.5822847 144.474351,60 140.462517,60 L127.537483,60 C123.525649,60 122.070861,59.5822847 120.604194,58.7979028 C119.137528,58.0135209 117.986479,56.8624723 117.202097,55.3958057 C116.417715,53.929139 116,52.4743509 116,48.4625166 L116,27.5374834 C116,23.5256491 116.417715,22.070861 117.202097,20.6041943 C117.986479,19.1375277 119.137528,17.9864791 120.604194,17.2020972 C122.070861,16.4177153 123.525649,16 127.537483,16 Z" id="Sides/Square-path"></path><g id="Ears" transform="translate(14.000000, 0.000000)"><mask id="Sides/Square-mask" fill="white"><use xlink:href="#Sides/Square-path"></use></mask><use fill="#0076DE" xlink:href="#Sides/Square-path"></use><g id="Yellow" mask="url(#Sides/Square-mask)" fill="#FFEB3B"><g transform="translate(-14.000000, 0.000000)"><rect x="0" y="0" width="180" height="76"></rect></g></g><rect id="Shadow" fill-opacity="0.1" fill="#000000" mask="url(#Sides/Square-mask)" x="-14" y="38" width="180" height="38"></rect></g></g></g><g id="Top" transform="translate(41.000000, 0.000000)" width="100px" height="52px"><g id="Top/Lights" stroke="none" stroke-width="1" fill="none" fill-rule="evenodd"><defs><path d="M56,18 L56,5 C56,2.23857625 58.2385763,5.07265313e-16 61,0 L67,0 C69.7614237,-5.07265313e-16 72,2.23857625 72,5 L72,18 L78,18 C79.1045695,18 80,18.8954305 80,20 L80,30 L0,30 L0,20 C-1.3527075e-16,18.8954305 0.8954305,18 2,18 L8,18 L8,5 C8,2.23857625 10.2385763,5.07265313e-16 13,0 L19,0 C21.7614237,-5.07265313e-16 24,2.23857625 24,5 L24,18 L32,18 L32,5 C32,2.23857625 34.2385763,5.07265313e-16 37,0 L43,0 C45.7614237,-5.07265313e-16 48,2.23857625 48,5 L48,18 L56,18 Z" id="Top/Lights-path"></path></defs><g id="Bulbs" transform="translate(10.000000, 22.000000)"><mask id="Top/Lights-mask" fill="white"><use xlink:href="#Top/Lights-path"></use></mask><use fill="#E1E6E8" xlink:href="#Top/Lights-path"></use><g id="BlueGrey" mask="url(#Top/Lights-mask)" fill="#607D8B"><g transform="translate(-10.000000, -22.000000)"><rect x="0" y="0" width="100" height="52"></rect></g></g><rect id="Highlite" fill-opacity="0.6" fill="#FFFFFF" mask="url(#Top/Lights-mask)" x="-10" y="-22" width="100" height="40"></rect><rect id="Light" fill-opacity="0.6" fill="#FFFFFF" mask="url(#Top/Lights-mask)" x="14" y="6" width="4" height="8" rx="2"></rect><rect id="Light" fill-opacity="0.6" fill="#FFFFFF" mask="url(#Top/Lights-mask)" x="38" y="6" width="4" height="8" rx="2"></rect><rect id="Light" fill-opacity="0.6" fill="#FFFFFF" mask="url(#Top/Lights-mask)" x="62" y="6" width="4" height="8" rx="2"></rect></g></g></g><g id="Face" transform="translate(25.000000, 44.000000)" width="130px" height="120px"><g id="Face/Square-02" stroke="none" stroke-width="1" fill="none" fill-rule="evenodd"><path d="M12,0 L118,0 C124.627417,-1.21743675e-15 130,5.372583 130,12 L130,82 C130,102.98682 112.98682,120 92,120 L38,120 C17.0131795,120 2.57014425e-15,102.98682 0,82 L0,12 C-8.11624501e-16,5.372583 5.372583,1.21743675e-15 12,0 Z" id="Face/Square-02-path-1"></path><mask id="Face/Square-02-mask-1" fill="white"><use xlink:href="#Face/Square-02-path-1"></use></mask><use id="Shape" fill="#0076DE" xlink:href="#Face/Square-02-path-1"></use><g id="Brown" mask="url(#Face/Square-02-mask-1)" fill="#795548"><g transform="translate(-2.000000, -2.000000)"><rect x="0" y="0" width="134" height="124"></rect></g></g><g id="Texture/Dirty01" mask="url(#Face/Square-02-mask-1)" stroke="none" stroke-width="1" fill="none" fill-rule="evenodd"><path d="M-9.11955629,122.092261 C-4.75864768,91.4015967 3.93799819,117.533631 24.8655794,112.12396 C34.1114596,109.733948 26.640969,99.2957595 33.5369251,94.7717324 C39.3618156,90.9503678 47.2997509,94.0293736 53.9721466,91.5579533 C63.6014225,87.99132 63.4748482,80.7354599 72.4469492,79.6510309 C80.9317383,78.6255016 89.8203396,82.0049911 98.377883,80.7354599 C114.52834,78.3395026 107.906382,46.7111063 120.01742,41.1251889 C132.128458,35.5392715 152.06764,45.1858521 154.677658,61 C156.373936,71.2777829 151.55461,95.5377314 140.21968,133.779846 L-9.11955629,133.779846" id="clean-me" fill-opacity="0.2" fill="#000000"></path><path d="M35.9268464,122 C73.6043905,122 77.5268977,107.25032 96.0650387,100.492846 C114.60318,93.7353716 130.845661,111.213512 137.077849,94.2331339 C141.232642,82.9128816 143.298631,94.895504 143.275816,130.181001 L35.9268464,130.181001 L35.9268464,122 Z" id="clean-me" fill-opacity="0.1" fill="#000000"></path><path d="M-2,4.86732511 C9.73320733,3.74652018 5.96193192,16.806064 10.5973598,16.806064 C12.4464321,16.806064 14.6252877,8.34889769 17.983215,8.34889769 C20.4379638,8.34889769 19.9753096,13.8424996 25.3050084,13.2617118 C30.3076746,12.7165614 29.3753984,9.26870987 31.9026708,9.26870987 C37.3453964,9.26870987 35.2872819,29.4636252 39.6440681,29.4636252 C44.0008542,29.4636252 45.3737266,14.6679622 47.2914382,8.8163548 C49.7180554,1.41189864 64.2635329,-2.73836446 53.8922857,-5.67986809 L-2.28674568,-5.67986809" id="clean-me" fill-opacity="0.4" fill="#000000"></path></g></g></g><g id="Mouth" transform="translate(52.000000, 124.000000)" width="76px" height="32px"><g id="Mouth/Grill-03" stroke="none" stroke-width="1" fill="none" fill-rule="evenodd"><rect id="Kiss-The-Robot-Beep-Boop" fill-opacity="0.2" fill="#000000" x="4" y="5" width="68" height="22" rx="5"></rect><rect id="Kiss-The-Robot-Beep-Boop" fill="#FFFFFF" x="8" y="9" width="60" height="14" rx="2"></rect><rect id="Bender-Teeth" fill-opacity="0.1" fill="#000000" x="18" y="9" width="4" height="14"></rect><rect id="Bender-Teeth" fill-opacity="0.1" fill="#000000" x="42" y="9" width="4" height="14"></rect><rect id="Bender-Teeth" fill-opacity="0.1" fill="#000000" x="30" y="9" width="4" height="14"></rect><rect id="Bender-Teeth" fill-opacity="0.1" fill="#000000" x="54" y="9" width="4" height="14"></rect></g></g><g id="Eyes" transform="translate(38.000000, 76.000000)" width="104px" height="48px"><g id="Eyes/Happy-ðŸ˜Š" stroke="none" stroke-width="1" fill="none" fill-rule="evenodd"><path d="M18,19 L30,17" id="happy" stroke="#000000" stroke-width="4"></path><path d="M20,31 C20,27.686 22.9098333,25 27,25 C30.0901667,25 33,27.686 33,31" id="happy" stroke="#000000" stroke-width="4"></path><path d="M86,20 L74,17" id="happy" stroke="#000000" stroke-width="4"></path><path d="M84,31 C84,27.686 81.0901667,25 78,25 C73.9098333,25 71,27.686 71,31" id="happy" stroke="#000000" stroke-width="4"></path></g></g></g></g></g></g></g></svg>