<svg width="300px" height="300px" viewBox="0 0 240 240" version="1.1" xmlns="http://www.w3.org/2000/svg" xmlns:xlink="http://www.w3.org/1999/xlink"><title>Bottt</title><desc>Created with botttsgenerator.com</desc><g id="Bottt" stroke="none" stroke-width="1" fill="none" fill-rule="evenodd"><g id="Circle"><defs><circle id="Circle-path-1" cx="120" cy="120" r="120"></circle><path d="M12,160 C12,226.27417 65.72583,280 132,280 C198.27417,280 252,226.27417 252,160 L264,160 L264,-1.42108547e-14 L-3.19744231e-14,-1.42108547e-14 L-3.19744231e-14,160 L12,160 Z" id="Circle-path-2"></path><path d="M124,144.610951 L124,163 L128,163 L128,163 C167.764502,163 200,195.235498 200,235 L200,244 L0,244 L0,235 C-4.86974701e-15,195.235498 32.235498,163 72,163 L72,163 L76,163 L76,144.610951 C58.7626345,136.422372 46.3722246,119.687011 44.3051388,99.8812385 C38.4803105,99.0577866 34,94.0521096 34,88 L34,74 C34,68.0540074 38.3245733,63.1180731 44,62.1659169 L44,56 L44,56 C44,25.072054 69.072054,5.68137151e-15 100,0 L100,0 L100,0 C130.927946,-5.68137151e-15 156,25.072054 156,56 L156,62.1659169 C161.675427,63.1180731 166,68.0540074 166,74 L166,88 C166,94.0521096 161.51969,99.0577866 155.694861,99.8812385 C153.627775,119.687011 141.237365,136.422372 124,144.610951 Z" id="Circle-path-3"></path></defs><g><g id="Circle" stroke-width="1" fill-rule="evenodd"><mask id="Circle-main-1" fill="white"><use xlink:href="#Circle-path-1"></use></mask><use id="Circle-Background" fill="#E6E6E6" xlink:href="#Circle-path-1"></use><g id="Green" mask="url(#Circle-main-1)" fill="#4CAF50"><rect id="ðŸ–Color" x="0" y="0" width="240" height="240"></rect></g></g><mask id="Circle-main-2" fill="white"><use xlink:href="#Circle-path-1"></use></mask><g id="Bottt" stroke-width="1" fill-rule="evenodd" mask="url(#Circle-main-2)"><g id="Bottt/Head" stroke="none" stroke-width="1" fill="none" fill-rule="evenodd" transform="translate(30.000000, 33.000000)"><g id="Sides" width="180px" height="76px" transform="translate(0.000000, 66.000000)"><g id="Sides/Cables02" stroke="none" stroke-width="1" fill="none" fill-rule="evenodd"><path d="M2,27 L14,27 C15.1045695,27 16,27.8954305 16,29 L16,47 C16,48.1045695 15.1045695,49 14,49 L2,49 C0.8954305,49 1.3527075e-16,48.1045695 0,47 L0,29 C-1.3527075e-16,27.8954305 0.8954305,27 2,27 Z M3,60 L15,60 C16.1045695,60 17,60.8954305 17,62 L17,70 C17,71.1045695 16.1045695,72 15,72 L3,72 C1.8954305,72 1,71.1045695 1,70 L1,62 C1,60.8954305 1.8954305,60 3,60 Z M124,42 L136,42 C137.104569,42 138,42.8954305 138,44 L138,62 C138,63.1045695 137.104569,64 136,64 L124,64 C122.895431,64 122,63.1045695 122,62 L122,44 C122,42.8954305 122.895431,42 124,42 Z M124,0 L136,0 C137.104569,-2.02906125e-16 138,0.8954305 138,2 L138,20 C138,21.1045695 137.104569,22 136,22 L124,22 C122.895431,22 122,21.1045695 122,20 L122,2 C122,0.8954305 122.895431,2.02906125e-16 124,0 Z" id="Sides/Cables02-path"></path><g id="Cables-Left" opacity="0.9" transform="translate(8.000000, 5.000000)" stroke="#2A3544"><ellipse id="Cable" stroke-width="6" cx="24.5" cy="18" rx="16.5" ry="18"></ellipse><path d="M18.8032032,36.4616969 C18.8032032,27.9012833 11.6397592,20.9616969 2.80320323,20.9616969" id="Cable" stroke-width="4" transform="translate(10.803203, 28.711697) scale(1, -1) rotate(-60.000000) translate(-10.803203, -28.711697) "></path><path d="M20,62 C29.3888407,62 37,55.5081289 37,47.5 C37,39.4918711 29.3888407,33 20,33 C10.6111593,33 4,39.4918711 4,47.5 C4,55.5081289 10.6111593,62 20,62 Z" id="Cable" stroke-width="4"></path></g><g id="Cables-Right" opacity="0.9" transform="translate(132.000000, 7.000000)" stroke="#2A3544"><path d="M33.8032032,58.4616969 C33.8032032,49.9012833 26.6397592,42.9616969 17.8032032,42.9616969" id="Cable" stroke-width="4" transform="translate(25.803203, 50.711697) rotate(-30.000000) translate(-25.803203, -50.711697) "></path><path d="M16,31 C25.3888407,31 33,24.0604136 33,15.5 C33,6.93958638 25.3888407,0 16,0 C6.61115925,0 0,6.93958638 0,15.5 C0,24.0604136 6.61115925,31 16,31 Z" id="Cable" stroke-width="6"></path></g><g id="Connectors" transform="translate(21.000000, 0.000000)"><mask id="Sides/Cables02-mask" fill="white"><use xlink:href="#Sides/Cables02-path"></use></mask><use fill="#273951" xlink:href="#Sides/Cables02-path"></use><g id="LightGreen" mask="url(#Sides/Cables02-mask)" fill="#8BC34A"><g transform="translate(-21.000000, 0.000000)"><rect x="0" y="0" width="180" height="76"></rect></g></g></g></g></g><g id="Top" transform="translate(41.000000, 0.000000)" width="100px" height="52px"><g id="Top/AntennaCrooked" stroke="none" stroke-width="1" fill="none" fill-rule="evenodd"><path d="M15.5683097,27 L24,27 L24,40 L7.10542736e-15,40 L7.10542736e-15,27 L12.0880581,27 L14.1789906,22.5630665 L8.12882501,12.1305168 L11.3538641,0.294936464 L14.2483322,1.08364073 L11.352836,11.7098307 L17.5437409,22.3850631 L15.5683097,27 Z" id="Top/AntennaCrooked-path"></path><g id="Antenna" transform="translate(38.000000, 12.000000)"><mask id="Top/AntennaCrooked-mask" fill="white"><use xlink:href="#Top/AntennaCrooked-path"></use></mask><use fill="#E6E6E6" fill-rule="nonzero" xlink:href="#Top/AntennaCrooked-path"></use><g id="Purple" mask="url(#Top/AntennaCrooked-mask)" fill="#9C27B0"><g transform="translate(-38.000000, -12.000000)"><rect x="0" y="0" width="100" height="52"></rect></g></g><rect id="Lite" fill-opacity="0.2" fill="#FFFFFF" mask="url(#Top/AntennaCrooked-mask)" x="0" y="27" width="24" height="13"></rect></g><circle id="Beep-Boop" fill="#FFE65C" cx="50" cy="8" r="8"></circle><circle id="Beep-Boop" fill="#FFFFFF" cx="53" cy="5" r="3"></circle></g></g><g id="Face" transform="translate(25.000000, 44.000000)" width="130px" height="120px"><g id="Face/Square-02" stroke="none" stroke-width="1" fill="none" fill-rule="evenodd"><path d="M12,0 L118,0 C124.627417,-1.21743675e-15 130,5.372583 130,12 L130,82 C130,102.98682 112.98682,120 92,120 L38,120 C17.0131795,120 2.57014425e-15,102.98682 0,82 L0,12 C-8.11624501e-16,5.372583 5.372583,1.21743675e-15 12,0 Z" id="Face/Square-02-path-1"></path><mask id="Face/Square-02-mask-1" fill="white"><use xlink:href="#Face/Square-02-path-1"></use></mask><use id="Shape" fill="#0076DE" xlink:href="#Face/Square-02-path-1"></use><g id="DeepOrange" mask="url(#Face/Square-02-mask-1)" fill="#FF5722"><g transform="translate(-2.000000, -2.000000)"><rect x="0" y="0" width="134" height="124"></rect></g></g><g id="Texture/None" mask="url(#Face/Square-02-mask-1)" stroke="none" stroke-width="1" fill="none" fill-rule="evenodd"></g></g></g><g id="Mouth" transform="translate(52.000000, 124.000000)" width="76px" height="32px"><g id="Mouth/Diagram" stroke="none" stroke-width="1" fill="none" fill-rule="evenodd"><rect id="Kiss-The-Robot-Beep-Boop" fill-opacity="0.2" fill="#000000" x="4" y="4" width="68" height="24" rx="5"></rect><rect id="Kiss-The-Robot-Beep-Boop" fill-opacity="0.8" fill="#000000" x="8" y="8" width="60" height="16" rx="2"></rect><polyline id="Path-3" stroke="#4EFAC9" stroke-width="2" stroke-linecap="round" stroke-linejoin="round" points="9 17 20 17 22 13 25 20 29 12 31 21 34 10 37 20 40 17 55 17 58 13 60 20 63 17 67 17"></polyline></g></g><g id="Eyes" transform="translate(38.000000, 76.000000)" width="104px" height="48px"><g id="Eyes/Round" stroke="none" stroke-width="1" fill="none" fill-rule="evenodd"><g id="Eye" transform="translate(18.000000, 24.000000)" fill="#FFFFFF"><circle cx="6" cy="6" r="6"></circle><circle cx="62" cy="6" r="6"></circle></g></g></g></g></g></g></g></g></svg>