<svg width="300px" height="300px" viewBox="0 0 240 240" version="1.1" xmlns="http://www.w3.org/2000/svg" xmlns:xlink="http://www.w3.org/1999/xlink"><title>Bottt</title><desc>Created with botttsgenerator.com</desc><g id="Bottt" stroke="none" stroke-width="1" fill="none" fill-rule="evenodd"><g id="Circle"><defs><circle id="Circle-path-1" cx="120" cy="120" r="120"></circle><path d="M12,160 C12,226.27417 65.72583,280 132,280 C198.27417,280 252,226.27417 252,160 L264,160 L264,-1.42108547e-14 L-3.19744231e-14,-1.42108547e-14 L-3.19744231e-14,160 L12,160 Z" id="Circle-path-2"></path><path d="M124,144.610951 L124,163 L128,163 L128,163 C167.764502,163 200,195.235498 200,235 L200,244 L0,244 L0,235 C-4.86974701e-15,195.235498 32.235498,163 72,163 L72,163 L76,163 L76,144.610951 C58.7626345,136.422372 46.3722246,119.687011 44.3051388,99.8812385 C38.4803105,99.0577866 34,94.0521096 34,88 L34,74 C34,68.0540074 38.3245733,63.1180731 44,62.1659169 L44,56 L44,56 C44,25.072054 69.072054,5.68137151e-15 100,0 L100,0 L100,0 C130.927946,-5.68137151e-15 156,25.072054 156,56 L156,62.1659169 C161.675427,63.1180731 166,68.0540074 166,74 L166,88 C166,94.0521096 161.51969,99.0577866 155.694861,99.8812385 C153.627775,119.687011 141.237365,136.422372 124,144.610951 Z" id="Circle-path-3"></path></defs><g><g id="Circle" stroke-width="1" fill-rule="evenodd"><mask id="Circle-main-1" fill="white"><use xlink:href="#Circle-path-1"></use></mask><use id="Circle-Background" fill="#E6E6E6" xlink:href="#Circle-path-1"></use><g id="Pink" mask="url(#Circle-main-1)" fill="#E91E63"><rect id="ðŸ–Color" x="0" y="0" width="240" height="240"></rect></g></g><mask id="Circle-main-2" fill="white"><use xlink:href="#Circle-path-1"></use></mask><g id="Bottt" stroke-width="1" fill-rule="evenodd" mask="url(#Circle-main-2)"><g id="Bottt/Head" stroke="none" stroke-width="1" fill="none" fill-rule="evenodd" transform="translate(30.000000, 33.000000)"><g id="Sides" width="180px" height="76px" transform="translate(0.000000, 66.000000)"><g id="Sides/Square" stroke="none" stroke-width="1" fill="none" fill-rule="evenodd"><path d="M11.5374834,16 L24.4625166,16 C28.4743509,16 29.929139,16.4177153 31.3958057,17.2020972 C32.8624723,17.9864791 34.0135209,19.1375277 34.7979028,20.6041943 C35.5822847,22.070861 36,23.5256491 36,27.5374834 L36,48.4625166 C36,52.4743509 35.5822847,53.929139 34.7979028,55.3958057 C34.0135209,56.8624723 32.8624723,58.0135209 31.3958057,58.7979028 C29.929139,59.5822847 28.4743509,60 24.4625166,60 L11.5374834,60 C7.52564907,60 6.070861,59.5822847 4.60419433,58.7979028 C3.13752767,58.0135209 1.98647908,56.8624723 1.20209717,55.3958057 C0.41771525,53.929139 1.80555915e-16,52.4743509 -3.10752092e-16,48.4625166 L3.10752092e-16,27.5374834 C-1.80555915e-16,23.5256491 0.41771525,22.070861 1.20209717,20.6041943 C1.98647908,19.1375277 3.13752767,17.9864791 4.60419433,17.2020972 C6.070861,16.4177153 7.52564907,16 11.5374834,16 Z M127.537483,16 L140.462517,16 C144.474351,16 145.929139,16.4177153 147.395806,17.2020972 C148.862472,17.9864791 150.013521,19.1375277 150.797903,20.6041943 C151.582285,22.070861 152,23.5256491 152,27.5374834 L152,48.4625166 C152,52.4743509 151.582285,53.929139 150.797903,55.3958057 C150.013521,56.8624723 148.862472,58.0135209 147.395806,58.7979028 C145.929139,59.5822847 144.474351,60 140.462517,60 L127.537483,60 C123.525649,60 122.070861,59.5822847 120.604194,58.7979028 C119.137528,58.0135209 117.986479,56.8624723 117.202097,55.3958057 C116.417715,53.929139 116,52.4743509 116,48.4625166 L116,27.5374834 C116,23.5256491 116.417715,22.070861 117.202097,20.6041943 C117.986479,19.1375277 119.137528,17.9864791 120.604194,17.2020972 C122.070861,16.4177153 123.525649,16 127.537483,16 Z" id="Sides/Square-path"></path><g id="Ears" transform="translate(14.000000, 0.000000)"><mask id="Sides/Square-mask" fill="white"><use xlink:href="#Sides/Square-path"></use></mask><use fill="#0076DE" xlink:href="#Sides/Square-path"></use><g id="Green" mask="url(#Sides/Square-mask)" fill="#4CAF50"><g transform="translate(-14.000000, 0.000000)"><rect x="0" y="0" width="180" height="76"></rect></g></g><rect id="Shadow" fill-opacity="0.1" fill="#000000" mask="url(#Sides/Square-mask)" x="-14" y="38" width="180" height="38"></rect></g></g></g><g id="Top" transform="translate(41.000000, 0.000000)" width="100px" height="52px"><g id="Top/Pyramid" stroke="none" stroke-width="1" fill="none" fill-rule="evenodd"><defs><polygon id="Top/Pyramid-path" points="50 8 82 52 18 52"></polygon></defs><mask id="Top/Pyramid-mask" fill="white"><use xlink:href="#Top/Pyramid-path"></use></mask><use id="Triangle" fill="#E1E6E8" xlink:href="#Top/Pyramid-path"></use><g id="Blue" mask="url(#Top/Pyramid-mask)" fill="#2196F3"><rect x="0" y="0" width="100" height="52"></rect></g><rect id="Highlight" fill-opacity="0.8" fill="#FFFFFF" mask="url(#Top/Pyramid-mask)" x="50" y="4" width="30" height="48"></rect></g></g><g id="Face" transform="translate(25.000000, 44.000000)" width="130px" height="120px"><g id="Face/Square-02" stroke="none" stroke-width="1" fill="none" fill-rule="evenodd"><path d="M12,0 L118,0 C124.627417,-1.21743675e-15 130,5.372583 130,12 L130,82 C130,102.98682 112.98682,120 92,120 L38,120 C17.0131795,120 2.57014425e-15,102.98682 0,82 L0,12 C-8.11624501e-16,5.372583 5.372583,1.21743675e-15 12,0 Z" id="Face/Square-02-path-1"></path><mask id="Face/Square-02-mask-1" fill="white"><use xlink:href="#Face/Square-02-path-1"></use></mask><use id="Shape" fill="#0076DE" xlink:href="#Face/Square-02-path-1"></use><g id="Purple" mask="url(#Face/Square-02-mask-1)" fill="#9C27B0"><g transform="translate(-2.000000, -2.000000)"><rect x="0" y="0" width="134" height="124"></rect></g></g><g id="Texture/None" mask="url(#Face/Square-02-mask-1)" stroke="none" stroke-width="1" fill="none" fill-rule="evenodd"></g></g></g><g id="Mouth" transform="translate(52.000000, 124.000000)" width="76px" height="32px"><g id="Mouth/Diagram" stroke="none" stroke-width="1" fill="none" fill-rule="evenodd"><rect id="Kiss-The-Robot-Beep-Boop" fill-opacity="0.2" fill="#000000" x="4" y="4" width="68" height="24" rx="5"></rect><rect id="Kiss-The-Robot-Beep-Boop" fill-opacity="0.8" fill="#000000" x="8" y="8" width="60" height="16" rx="2"></rect><polyline id="Path-3" stroke="#4EFAC9" stroke-width="2" stroke-linecap="round" stroke-linejoin="round" points="9 17 20 17 22 13 25 20 29 12 31 21 34 10 37 20 40 17 55 17 58 13 60 20 63 17 67 17"></polyline></g></g><g id="Eyes" transform="translate(38.000000, 76.000000)" width="104px" height="48px"><g id="Eyes/RoboCop" stroke="none" stroke-width="1" fill="none" fill-rule="evenodd"><rect id="Eyes/RoboCop-path" x="7" y="16" width="91" height="16" rx="4"></rect><mask id="Eyes/RoboCop-mask" fill="white"><use xlink:href="#Eyes/RoboCop-path"></use></mask><use id="Container" fill-opacity="0.8" fill="#000000" xlink:href="#Eyes/RoboCop-path"></use><polygon id="Reflection" fill-opacity="0.8" fill="#FFFFFF" mask="url(#Eyes/RoboCop-mask)" points="76 7 94 7 82 37 64 37"></polygon><polygon id="Reflection" fill-opacity="0.8" fill="#FFFFFF" mask="url(#Eyes/RoboCop-mask)" points="52 7 61 7 49 37 40 37"></polygon></g></g></g></g></g></g></g></svg>