<svg width="300px" height="300px" viewBox="0 0 240 240" version="1.1" xmlns="http://www.w3.org/2000/svg" xmlns:xlink="http://www.w3.org/1999/xlink"><title>Bottt</title><desc>Created with botttsgenerator.com</desc><g id="Bottt" stroke="none" stroke-width="1" fill="none" fill-rule="evenodd"><g id="Circle"><defs><circle id="Circle-path-1" cx="120" cy="120" r="120"></circle><path d="M12,160 C12,226.27417 65.72583,280 132,280 C198.27417,280 252,226.27417 252,160 L264,160 L264,-1.42108547e-14 L-3.19744231e-14,-1.42108547e-14 L-3.19744231e-14,160 L12,160 Z" id="Circle-path-2"></path><path d="M124,144.610951 L124,163 L128,163 L128,163 C167.764502,163 200,195.235498 200,235 L200,244 L0,244 L0,235 C-4.86974701e-15,195.235498 32.235498,163 72,163 L72,163 L76,163 L76,144.610951 C58.7626345,136.422372 46.3722246,119.687011 44.3051388,99.8812385 C38.4803105,99.0577866 34,94.0521096 34,88 L34,74 C34,68.0540074 38.3245733,63.1180731 44,62.1659169 L44,56 L44,56 C44,25.072054 69.072054,5.68137151e-15 100,0 L100,0 L100,0 C130.927946,-5.68137151e-15 156,25.072054 156,56 L156,62.1659169 C161.675427,63.1180731 166,68.0540074 166,74 L166,88 C166,94.0521096 161.51969,99.0577866 155.694861,99.8812385 C153.627775,119.687011 141.237365,136.422372 124,144.610951 Z" id="Circle-path-3"></path></defs><g><g id="Circle" stroke-width="1" fill-rule="evenodd"><mask id="Circle-main-1" fill="white"><use xlink:href="#Circle-path-1"></use></mask><use id="Circle-Background" fill="#E6E6E6" xlink:href="#Circle-path-1"></use><g id="White" mask="url(#Circle-main-1)" fill="#FFFFFF"><rect id="ðŸ–Color" x="0" y="0" width="240" height="240"></rect></g></g><mask id="Circle-main-2" fill="white"><use xlink:href="#Circle-path-1"></use></mask><g id="Bottt" stroke-width="1" fill-rule="evenodd" mask="url(#Circle-main-2)"><g id="Bottt/Head" stroke="none" stroke-width="1" fill="none" fill-rule="evenodd" transform="translate(30.000000, 33.000000)"><g id="Sides" width="180px" height="76px" transform="translate(0.000000, 66.000000)"><g id="Sides/Square" stroke="none" stroke-width="1" fill="none" fill-rule="evenodd"><path d="M11.5374834,16 L24.4625166,16 C28.4743509,16 29.929139,16.4177153 31.3958057,17.2020972 C32.8624723,17.9864791 34.0135209,19.1375277 34.7979028,20.6041943 C35.5822847,22.070861 36,23.5256491 36,27.5374834 L36,48.4625166 C36,52.4743509 35.5822847,53.929139 34.7979028,55.3958057 C34.0135209,56.8624723 32.8624723,58.0135209 31.3958057,58.7979028 C29.929139,59.5822847 28.4743509,60 24.4625166,60 L11.5374834,60 C7.52564907,60 6.070861,59.5822847 4.60419433,58.7979028 C3.13752767,58.0135209 1.98647908,56.8624723 1.20209717,55.3958057 C0.41771525,53.929139 1.80555915e-16,52.4743509 -3.10752092e-16,48.4625166 L3.10752092e-16,27.5374834 C-1.80555915e-16,23.5256491 0.41771525,22.070861 1.20209717,20.6041943 C1.98647908,19.1375277 3.13752767,17.9864791 4.60419433,17.2020972 C6.070861,16.4177153 7.52564907,16 11.5374834,16 Z M127.537483,16 L140.462517,16 C144.474351,16 145.929139,16.4177153 147.395806,17.2020972 C148.862472,17.9864791 150.013521,19.1375277 150.797903,20.6041943 C151.582285,22.070861 152,23.5256491 152,27.5374834 L152,48.4625166 C152,52.4743509 151.582285,53.929139 150.797903,55.3958057 C150.013521,56.8624723 148.862472,58.0135209 147.395806,58.7979028 C145.929139,59.5822847 144.474351,60 140.462517,60 L127.537483,60 C123.525649,60 122.070861,59.5822847 120.604194,58.7979028 C119.137528,58.0135209 117.986479,56.8624723 117.202097,55.3958057 C116.417715,53.929139 116,52.4743509 116,48.4625166 L116,27.5374834 C116,23.5256491 116.417715,22.070861 117.202097,20.6041943 C117.986479,19.1375277 119.137528,17.9864791 120.604194,17.2020972 C122.070861,16.4177153 123.525649,16 127.537483,16 Z" id="Sides/Square-path"></path><g id="Ears" transform="translate(14.000000, 0.000000)"><mask id="Sides/Square-mask" fill="white"><use xlink:href="#Sides/Square-path"></use></mask><use fill="#0076DE" xlink:href="#Sides/Square-path"></use><g id="DeepPurple" mask="url(#Sides/Square-mask)" fill="#673AB7"><g transform="translate(-14.000000, 0.000000)"><rect x="0" y="0" width="180" height="76"></rect></g></g><rect id="Shadow" fill-opacity="0.1" fill="#000000" mask="url(#Sides/Square-mask)" x="-14" y="38" width="180" height="38"></rect></g></g></g><g id="Top" transform="translate(41.000000, 0.000000)" width="100px" height="52px"><g id="Top/Bulb-01" stroke="none" stroke-width="1" fill="none" fill-rule="evenodd"><path d="M70,36 L79,36 C79.5522847,36 80,36.4477153 80,37 L80,51 C80,51.5522847 79.5522847,52 79,52 L21,52 C20.4477153,52 20,51.5522847 20,51 L20,37 C20,36.4477153 20.4477153,36 21,36 L30,36 L30,33 C30,21.954305 38.954305,13 50,13 C61.045695,13 70,21.954305 70,33 L70,36 Z" id="Top/Bulb-01-path"></path><mask id="Top/Bulb-01-mask" fill="white"><use xlink:href="#Top/Bulb-01-path"></use></mask><use id="Bulb-Mask" fill="#59C4FF" xlink:href="#Top/Bulb-01-path"></use><g id="Blue" mask="url(#Top/Bulb-01-mask)" fill="#2196F3"><rect x="0" y="0" width="100" height="52"></rect></g><path d="M50,36 C52.209139,36 54,35.0279942 54,31.7142857 C54,28.4005772 52.209139,24 50,24 C47.790861,24 46,28.4005772 46,31.7142857 C46,35.0279942 47.790861,36 50,36 Z" id="Light" fill-opacity="0.6" fill="#FFFFFF" mask="url(#Top/Bulb-01-mask)"></path><rect id="Highlight" fill-opacity="0.4" fill="#FFFFFF" mask="url(#Top/Bulb-01-mask)" x="20" y="13" width="60" height="23"></rect><path d="M50,15.5 C54.9315485,15.5 59.3660426,17.6281427 62.4352098,21.0161556 M64.8733745,24.5107242 C65.5630474,25.8293043 66.0825179,27.2509729 66.4026217,28.7465657" id="Reflection" stroke="#FFFFFF" stroke-width="2" stroke-linecap="round" mask="url(#Top/Bulb-01-mask)"></path></g></g><g id="Face" transform="translate(25.000000, 44.000000)" width="130px" height="120px"><g id="Face/RoboCop" stroke="none" stroke-width="1" fill="none" fill-rule="evenodd"><path d="M126,79.5857961 L126,104 C126,112.836556 118.836556,120 110,120 L20,120 C11.163444,120 4,112.836556 4,104 L4,79.5857961 L0,79.5857961 L1.10489633e-15,41.0221632 C-6.41976585e-16,26.7578634 1.48520978,21.5852836 4.27412326,16.3704687 C7.06303674,11.1556539 11.1556539,7.06303674 16.3704687,4.27412326 C21.5852836,1.48520978 26.7578634,-7.71967361e-14 41.0221632,-7.98170454e-14 L88.9778368,-7.65023564e-14 C103.242137,-7.91226658e-14 108.414716,1.48520978 113.629531,4.27412326 C118.844346,7.06303674 122.936963,11.1556539 125.725877,16.3704687 C128.51479,21.5852836 130,26.7578634 130,41.0221632 L130,79.5857961 L126,79.5857961 Z" id="Face/RoboCop-path"></path><mask id="Face/RoboCop-mask" fill="white"><use xlink:href="#Face/RoboCop-path"></use></mask><use id="Dead-or-alive," fill="#0076DE" xlink:href="#Face/RoboCop-path"></use><g id="Purple" mask="url(#Face/RoboCop-mask)" fill="#9C27B0"><g transform="translate(-2.000000, 0.000000)"><rect x="0" y="0" width="134" height="120"></rect></g></g><rect id="Murphy" fill-opacity="0.8" fill="#000000" mask="url(#Face/RoboCop-mask)" x="4" y="80" width="122" height="40"></rect><g id="Texture/Circuits" mask="url(#Face/RoboCop-mask)" stroke="none" stroke-width="1" fill="none" fill-rule="evenodd"><path d="M72.4160437,34 L23,34 L19,34 L19,0 L23,0 L23,30 L72.4160437,30 C73.1876003,28.2340952 74.949681,27 77,27 C79.7614237,27 82,29.2385763 82,32 C82,34.7614237 79.7614237,37 77,37 C74.949681,37 73.1876003,35.7659048 72.4160437,34 Z M11,0 L15,0 L15,18 L11,18 L11,0 Z" id="Beep-Boop" fill-opacity="0.1" fill="#000000"></path><path d="M122,34.5839563 L122,60 L141,60 L141,64 L122,64 L118,64 L118,34.5839563 C116.234095,33.8123997 115,32.050319 115,30 C115,27.2385763 117.238576,25 120,25 C122.761424,25 125,27.2385763 125,30 C125,32.050319 123.765905,33.8123997 122,34.5839563 Z" id="Beep-Boop" fill-opacity="0.2" fill="#FFFFFF"></path><path d="M114,68 L141,68 L141,72 L114,72 L110,72 L110,46 L114,46 L114,68 Z" id="Beep-Boop" fill-opacity="0.2" fill="#000000"></path><path d="M15,103.583956 L15,129 L34,129 L34,133 L15,133 L11,133 L11,103.583956 C9.23409522,102.8124 8,101.050319 8,99 C8,96.2385763 10.2385763,94 13,94 C15.7614237,94 18,96.2385763 18,99 C18,101.050319 16.7659048,102.8124 15,103.583956 Z" id="Beep-Boop" fill-opacity="0.2" fill="#000000" transform="translate(21.000000, 113.500000) scale(-1, 1) translate(-21.000000, -113.500000) "></path></g></g></g><g id="Mouth" transform="translate(52.000000, 124.000000)" width="76px" height="32px"><g id="Mouth/Grill-03" stroke="none" stroke-width="1" fill="none" fill-rule="evenodd"><rect id="Kiss-The-Robot-Beep-Boop" fill-opacity="0.2" fill="#000000" x="4" y="5" width="68" height="22" rx="5"></rect><rect id="Kiss-The-Robot-Beep-Boop" fill="#FFFFFF" x="8" y="9" width="60" height="14" rx="2"></rect><rect id="Bender-Teeth" fill-opacity="0.1" fill="#000000" x="18" y="9" width="4" height="14"></rect><rect id="Bender-Teeth" fill-opacity="0.1" fill="#000000" x="42" y="9" width="4" height="14"></rect><rect id="Bender-Teeth" fill-opacity="0.1" fill="#000000" x="30" y="9" width="4" height="14"></rect><rect id="Bender-Teeth" fill-opacity="0.1" fill="#000000" x="54" y="9" width="4" height="14"></rect></g></g><g id="Eyes" transform="translate(38.000000, 76.000000)" width="104px" height="48px"><g id="Eyes/Happy-ðŸ˜Š" stroke="none" stroke-width="1" fill="none" fill-rule="evenodd"><path d="M18,19 L30,17" id="happy" stroke="#000000" stroke-width="4"></path><path d="M20,31 C20,27.686 22.9098333,25 27,25 C30.0901667,25 33,27.686 33,31" id="happy" stroke="#000000" stroke-width="4"></path><path d="M86,20 L74,17" id="happy" stroke="#000000" stroke-width="4"></path><path d="M84,31 C84,27.686 81.0901667,25 78,25 C73.9098333,25 71,27.686 71,31" id="happy" stroke="#000000" stroke-width="4"></path></g></g></g></g></g></g></g></svg>