<svg width="300px" height="300px" viewBox="0 0 240 240" version="1.1" xmlns="http://www.w3.org/2000/svg" xmlns:xlink="http://www.w3.org/1999/xlink"><title>Bottt</title><desc>Created with botttsgenerator.com</desc><g id="Bottt" stroke="none" stroke-width="1" fill="none" fill-rule="evenodd"><g id="Circle"><defs><circle id="Circle-path-1" cx="120" cy="120" r="120"></circle><path d="M12,160 C12,226.27417 65.72583,280 132,280 C198.27417,280 252,226.27417 252,160 L264,160 L264,-1.42108547e-14 L-3.19744231e-14,-1.42108547e-14 L-3.19744231e-14,160 L12,160 Z" id="Circle-path-2"></path><path d="M124,144.610951 L124,163 L128,163 L128,163 C167.764502,163 200,195.235498 200,235 L200,244 L0,244 L0,235 C-4.86974701e-15,195.235498 32.235498,163 72,163 L72,163 L76,163 L76,144.610951 C58.7626345,136.422372 46.3722246,119.687011 44.3051388,99.8812385 C38.4803105,99.0577866 34,94.0521096 34,88 L34,74 C34,68.0540074 38.3245733,63.1180731 44,62.1659169 L44,56 L44,56 C44,25.072054 69.072054,5.68137151e-15 100,0 L100,0 L100,0 C130.927946,-5.68137151e-15 156,25.072054 156,56 L156,62.1659169 C161.675427,63.1180731 166,68.0540074 166,74 L166,88 C166,94.0521096 161.51969,99.0577866 155.694861,99.8812385 C153.627775,119.687011 141.237365,136.422372 124,144.610951 Z" id="Circle-path-3"></path></defs><g><g id="Circle" stroke-width="1" fill-rule="evenodd"><mask id="Circle-main-1" fill="white"><use xlink:href="#Circle-path-1"></use></mask><use id="Circle-Background" fill="#E6E6E6" xlink:href="#Circle-path-1"></use><g id="Pink" mask="url(#Circle-main-1)" fill="#E91E63"><rect id="ðŸ–Color" x="0" y="0" width="240" height="240"></rect></g></g><mask id="Circle-main-2" fill="white"><use xlink:href="#Circle-path-1"></use></mask><g id="Bottt" stroke-width="1" fill-rule="evenodd" mask="url(#Circle-main-2)"><g id="Bottt/Head" stroke="none" stroke-width="1" fill="none" fill-rule="evenodd" transform="translate(30.000000, 33.000000)"><g id="Sides" width="180px" height="76px" transform="translate(0.000000, 66.000000)"><g id="Sides/Square" stroke="none" stroke-width="1" fill="none" fill-rule="evenodd"><path d="M11.5374834,16 L24.4625166,16 C28.4743509,16 29.929139,16.4177153 31.3958057,17.2020972 C32.8624723,17.9864791 34.0135209,19.1375277 34.7979028,20.6041943 C35.5822847,22.070861 36,23.5256491 36,27.5374834 L36,48.4625166 C36,52.4743509 35.5822847,53.929139 34.7979028,55.3958057 C34.0135209,56.8624723 32.8624723,58.0135209 31.3958057,58.7979028 C29.929139,59.5822847 28.4743509,60 24.4625166,60 L11.5374834,60 C7.52564907,60 6.070861,59.5822847 4.60419433,58.7979028 C3.13752767,58.0135209 1.98647908,56.8624723 1.20209717,55.3958057 C0.41771525,53.929139 1.80555915e-16,52.4743509 -3.10752092e-16,48.4625166 L3.10752092e-16,27.5374834 C-1.80555915e-16,23.5256491 0.41771525,22.070861 1.20209717,20.6041943 C1.98647908,19.1375277 3.13752767,17.9864791 4.60419433,17.2020972 C6.070861,16.4177153 7.52564907,16 11.5374834,16 Z M127.537483,16 L140.462517,16 C144.474351,16 145.929139,16.4177153 147.395806,17.2020972 C148.862472,17.9864791 150.013521,19.1375277 150.797903,20.6041943 C151.582285,22.070861 152,23.5256491 152,27.5374834 L152,48.4625166 C152,52.4743509 151.582285,53.929139 150.797903,55.3958057 C150.013521,56.8624723 148.862472,58.0135209 147.395806,58.7979028 C145.929139,59.5822847 144.474351,60 140.462517,60 L127.537483,60 C123.525649,60 122.070861,59.5822847 120.604194,58.7979028 C119.137528,58.0135209 117.986479,56.8624723 117.202097,55.3958057 C116.417715,53.929139 116,52.4743509 116,48.4625166 L116,27.5374834 C116,23.5256491 116.417715,22.070861 117.202097,20.6041943 C117.986479,19.1375277 119.137528,17.9864791 120.604194,17.2020972 C122.070861,16.4177153 123.525649,16 127.537483,16 Z" id="Sides/Square-path"></path><g id="Ears" transform="translate(14.000000, 0.000000)"><mask id="Sides/Square-mask" fill="white"><use xlink:href="#Sides/Square-path"></use></mask><use fill="#0076DE" xlink:href="#Sides/Square-path"></use><g id="Amber" mask="url(#Sides/Square-mask)" fill="#FFC107"><g transform="translate(-14.000000, 0.000000)"><rect x="0" y="0" width="180" height="76"></rect></g></g><rect id="Shadow" fill-opacity="0.1" fill="#000000" mask="url(#Sides/Square-mask)" x="-14" y="38" width="180" height="38"></rect></g></g></g><g id="Top" transform="translate(41.000000, 0.000000)" width="100px" height="52px"><g id="Top/Bulb-01" stroke="none" stroke-width="1" fill="none" fill-rule="evenodd"><path d="M70,36 L79,36 C79.5522847,36 80,36.4477153 80,37 L80,51 C80,51.5522847 79.5522847,52 79,52 L21,52 C20.4477153,52 20,51.5522847 20,51 L20,37 C20,36.4477153 20.4477153,36 21,36 L30,36 L30,33 C30,21.954305 38.954305,13 50,13 C61.045695,13 70,21.954305 70,33 L70,36 Z" id="Top/Bulb-01-path"></path><mask id="Top/Bulb-01-mask" fill="white"><use xlink:href="#Top/Bulb-01-path"></use></mask><use id="Bulb-Mask" fill="#59C4FF" xlink:href="#Top/Bulb-01-path"></use><g id="Pink" mask="url(#Top/Bulb-01-mask)" fill="#E91E63"><rect x="0" y="0" width="100" height="52"></rect></g><path d="M50,36 C52.209139,36 54,35.0279942 54,31.7142857 C54,28.4005772 52.209139,24 50,24 C47.790861,24 46,28.4005772 46,31.7142857 C46,35.0279942 47.790861,36 50,36 Z" id="Light" fill-opacity="0.6" fill="#FFFFFF" mask="url(#Top/Bulb-01-mask)"></path><rect id="Highlight" fill-opacity="0.4" fill="#FFFFFF" mask="url(#Top/Bulb-01-mask)" x="20" y="13" width="60" height="23"></rect><path d="M50,15.5 C54.9315485,15.5 59.3660426,17.6281427 62.4352098,21.0161556 M64.8733745,24.5107242 C65.5630474,25.8293043 66.0825179,27.2509729 66.4026217,28.7465657" id="Reflection" stroke="#FFFFFF" stroke-width="2" stroke-linecap="round" mask="url(#Top/Bulb-01-mask)"></path></g></g><g id="Face" transform="translate(25.000000, 44.000000)" width="130px" height="120px"><g id="Face/Square-01" stroke="none" stroke-width="1" fill="none" fill-rule="evenodd"><rect id="Face/Square-01-path-1" x="0" y="0" width="130" height="120" rx="18"></rect><mask id="Face/Square-01-mask-1" fill="white"><use xlink:href="#Face/Square-01-path-1"></use></mask><use id="Shape" fill="#0076DE" xlink:href="#Face/Square-01-path-1"></use><g id="LightBlue" mask="url(#Face/Square-01-mask-1)" fill="#03A9F4"><g transform="translate(-2.000000, -2.000000)"><rect x="0" y="0" width="134" height="124"></rect></g></g><g id="Texture/Dirty02" mask="url(#Face/Square-01-mask-1)" stroke="none" stroke-width="1" fill="none" fill-rule="evenodd"><path d="M-20,124.648555 C-16.811588,107.308454 -10.4531676,122.072947 4.84771523,119.016505 C11.6077,117.666158 6.14576431,111.768624 11.1876378,109.212567 C15.4464179,107.053511 21.2501186,108.793137 26.1285392,107.396795 C33.1688379,105.381661 33.076295,101.28213 39.6361103,100.669432 C45.8396348,100.090012 52.3384005,101.99941 58.5951182,101.28213 C70.4032792,99.9284239 65.5617357,82.0585087 74.4165368,78.902488 C83.2713379,75.7464674 97.8495674,81.1967462 99.7578423,90.1316754 C100.99805,95.938581 97.4744737,109.645353 89.187112,131.251992 L-20,131.251992" id="so-dirty" fill-opacity="0.2" fill="#000000" transform="translate(40.000000, 104.625996) scale(-1, 1) translate(-40.000000, -104.625996) "></path><path d="M-10,116.766616 C41.2432666,116.766616 46.5780646,90.9746332 71.7908251,79.1581974 C97.0035857,67.3417617 119.094139,97.9048577 127.570214,68.2121722 C133.220931,48.4170485 136.030775,69.3704236 135.999746,131.072298 L-10,131.072298 L-10,116.766616 Z" id="so-dirty" fill-opacity="0.1" fill="#000000" transform="translate(63.000000, 96.036149) scale(-1, 1) translate(-63.000000, -96.036149) "></path><path d="M81.2916974,3.17587305 C93.2275238,2.20079242 86.321669,13.9842725 91.0371454,13.9842725 C98.0044934,13.9842725 93.1398947,6.00620803 101.62,6.20478012 C103.83957,6.25675408 106.563717,8.14434394 106.732126,10.7089898 C107.093966,16.2193464 103.015188,25.7252553 108.570487,25.9952874 C113.749725,26.2470398 109.673776,16.3561956 110.214935,9.75934414 C110.524385,5.98709048 114.397472,3.0074528 117.183163,3.0074528 C124.754416,3.0074528 118.868741,18.7147098 124.318032,18.7147098 C129.767324,18.7147098 125.526609,9.66391004 129.399805,4.87149468 C133.902864,-0.700269812 148.699526,-3.44094345 138.149179,-6 L81,-6" id="so-dirty" fill-opacity="0.4" fill="#000000" transform="translate(111.433379, 10.000000) scale(-1, 1) translate(-111.433379, -10.000000) "></path></g></g></g><g id="Mouth" transform="translate(52.000000, 124.000000)" width="76px" height="32px"><g id="Mouth/Bite" stroke="none" stroke-width="1" fill="none" fill-rule="evenodd"><rect id="Kiss-The-Robot-Beep-Boop" fill-opacity="0.2" fill="#000000" x="4" y="5" width="68" height="22" rx="5"></rect><rect id="Kiss-The-Robot-Beep-Boop" fill-opacity="0.6" fill="#000000" x="8" y="9" width="60" height="14" rx="2"></rect><polygon id="Triangle-2" fill="#E1E6E8" transform="translate(20.000000, 13.000000) scale(1, -1) translate(-20.000000, -13.000000) " points="20 9 26 17 14 17"></polygon><polygon id="Triangle-2" fill="#E1E6E8" transform="translate(32.000000, 13.000000) scale(1, -1) translate(-32.000000, -13.000000) " points="32 9 38 17 26 17"></polygon><polygon id="Triangle-2" fill="#E1E6E8" transform="translate(44.000000, 13.000000) scale(1, -1) translate(-44.000000, -13.000000) " points="44 9 50 17 38 17"></polygon><polygon id="Triangle-2" fill="#E1E6E8" transform="translate(56.000000, 13.000000) scale(1, -1) translate(-56.000000, -13.000000) " points="56 9 62 17 50 17"></polygon></g></g><g id="Eyes" transform="translate(38.000000, 76.000000)" width="104px" height="48px"><g id="Eyes/Round-Frame-02" stroke="none" stroke-width="1" fill="none" fill-rule="evenodd"><rect id="Container" fill-opacity="0.8" fill="#000000" x="0" y="11" width="104" height="34" rx="17"></rect><circle id="Cornea" fill="#F1EEDA" cx="29" cy="28" r="13"></circle><circle id="Cornea" fill="#F1EEDA" cx="75" cy="28" r="13"></circle><rect id="Iris" fill-opacity="0.8" fill="#000000" x="24" y="23" width="10" height="10" rx="2"></rect><rect id="Iris" fill-opacity="0.8" fill="#000000" x="70" y="23" width="10" height="10" rx="2"></rect></g></g></g></g></g></g></g></svg>