<svg width="300px" height="300px" viewBox="0 0 240 240" version="1.1" xmlns="http://www.w3.org/2000/svg" xmlns:xlink="http://www.w3.org/1999/xlink"><title>Bottt</title><desc>Created with botttsgenerator.com</desc><g id="Bottt" stroke="none" stroke-width="1" fill="none" fill-rule="evenodd"><g id="Circle"><defs><circle id="Circle-path-1" cx="120" cy="120" r="120"></circle><path d="M12,160 C12,226.27417 65.72583,280 132,280 C198.27417,280 252,226.27417 252,160 L264,160 L264,-1.42108547e-14 L-3.19744231e-14,-1.42108547e-14 L-3.19744231e-14,160 L12,160 Z" id="Circle-path-2"></path><path d="M124,144.610951 L124,163 L128,163 L128,163 C167.764502,163 200,195.235498 200,235 L200,244 L0,244 L0,235 C-4.86974701e-15,195.235498 32.235498,163 72,163 L72,163 L76,163 L76,144.610951 C58.7626345,136.422372 46.3722246,119.687011 44.3051388,99.8812385 C38.4803105,99.0577866 34,94.0521096 34,88 L34,74 C34,68.0540074 38.3245733,63.1180731 44,62.1659169 L44,56 L44,56 C44,25.072054 69.072054,5.68137151e-15 100,0 L100,0 L100,0 C130.927946,-5.68137151e-15 156,25.072054 156,56 L156,62.1659169 C161.675427,63.1180731 166,68.0540074 166,74 L166,88 C166,94.0521096 161.51969,99.0577866 155.694861,99.8812385 C153.627775,119.687011 141.237365,136.422372 124,144.610951 Z" id="Circle-path-3"></path></defs><g><g id="Circle" stroke-width="1" fill-rule="evenodd"><mask id="Circle-main-1" fill="white"><use xlink:href="#Circle-path-1"></use></mask><use id="Circle-Background" fill="#E6E6E6" xlink:href="#Circle-path-1"></use><g id="DeepPurple" mask="url(#Circle-main-1)" fill="#673AB7"><rect id="ðŸ–Color" x="0" y="0" width="240" height="240"></rect></g></g><mask id="Circle-main-2" fill="white"><use xlink:href="#Circle-path-1"></use></mask><g id="Bottt" stroke-width="1" fill-rule="evenodd" mask="url(#Circle-main-2)"><g id="Bottt/Head" stroke="none" stroke-width="1" fill="none" fill-rule="evenodd" transform="translate(30.000000, 33.000000)"><g id="Sides" width="180px" height="76px" transform="translate(0.000000, 66.000000)"><g id="Sides/Cables02" stroke="none" stroke-width="1" fill="none" fill-rule="evenodd"><path d="M2,27 L14,27 C15.1045695,27 16,27.8954305 16,29 L16,47 C16,48.1045695 15.1045695,49 14,49 L2,49 C0.8954305,49 1.3527075e-16,48.1045695 0,47 L0,29 C-1.3527075e-16,27.8954305 0.8954305,27 2,27 Z M3,60 L15,60 C16.1045695,60 17,60.8954305 17,62 L17,70 C17,71.1045695 16.1045695,72 15,72 L3,72 C1.8954305,72 1,71.1045695 1,70 L1,62 C1,60.8954305 1.8954305,60 3,60 Z M124,42 L136,42 C137.104569,42 138,42.8954305 138,44 L138,62 C138,63.1045695 137.104569,64 136,64 L124,64 C122.895431,64 122,63.1045695 122,62 L122,44 C122,42.8954305 122.895431,42 124,42 Z M124,0 L136,0 C137.104569,-2.02906125e-16 138,0.8954305 138,2 L138,20 C138,21.1045695 137.104569,22 136,22 L124,22 C122.895431,22 122,21.1045695 122,20 L122,2 C122,0.8954305 122.895431,2.02906125e-16 124,0 Z" id="Sides/Cables02-path"></path><g id="Cables-Left" opacity="0.9" transform="translate(8.000000, 5.000000)" stroke="#2A3544"><ellipse id="Cable" stroke-width="6" cx="24.5" cy="18" rx="16.5" ry="18"></ellipse><path d="M18.8032032,36.4616969 C18.8032032,27.9012833 11.6397592,20.9616969 2.80320323,20.9616969" id="Cable" stroke-width="4" transform="translate(10.803203, 28.711697) scale(1, -1) rotate(-60.000000) translate(-10.803203, -28.711697) "></path><path d="M20,62 C29.3888407,62 37,55.5081289 37,47.5 C37,39.4918711 29.3888407,33 20,33 C10.6111593,33 4,39.4918711 4,47.5 C4,55.5081289 10.6111593,62 20,62 Z" id="Cable" stroke-width="4"></path></g><g id="Cables-Right" opacity="0.9" transform="translate(132.000000, 7.000000)" stroke="#2A3544"><path d="M33.8032032,58.4616969 C33.8032032,49.9012833 26.6397592,42.9616969 17.8032032,42.9616969" id="Cable" stroke-width="4" transform="translate(25.803203, 50.711697) rotate(-30.000000) translate(-25.803203, -50.711697) "></path><path d="M16,31 C25.3888407,31 33,24.0604136 33,15.5 C33,6.93958638 25.3888407,0 16,0 C6.61115925,0 0,6.93958638 0,15.5 C0,24.0604136 6.61115925,31 16,31 Z" id="Cable" stroke-width="6"></path></g><g id="Connectors" transform="translate(21.000000, 0.000000)"><mask id="Sides/Cables02-mask" fill="white"><use xlink:href="#Sides/Cables02-path"></use></mask><use fill="#273951" xlink:href="#Sides/Cables02-path"></use><g id="Cyan" mask="url(#Sides/Cables02-mask)" fill="#00BCD4"><g transform="translate(-21.000000, 0.000000)"><rect x="0" y="0" width="180" height="76"></rect></g></g></g></g></g><g id="Top" transform="translate(41.000000, 0.000000)" width="100px" height="52px"><g id="Top/Lights" stroke="none" stroke-width="1" fill="none" fill-rule="evenodd"><defs><path d="M56,18 L56,5 C56,2.23857625 58.2385763,5.07265313e-16 61,0 L67,0 C69.7614237,-5.07265313e-16 72,2.23857625 72,5 L72,18 L78,18 C79.1045695,18 80,18.8954305 80,20 L80,30 L0,30 L0,20 C-1.3527075e-16,18.8954305 0.8954305,18 2,18 L8,18 L8,5 C8,2.23857625 10.2385763,5.07265313e-16 13,0 L19,0 C21.7614237,-5.07265313e-16 24,2.23857625 24,5 L24,18 L32,18 L32,5 C32,2.23857625 34.2385763,5.07265313e-16 37,0 L43,0 C45.7614237,-5.07265313e-16 48,2.23857625 48,5 L48,18 L56,18 Z" id="Top/Lights-path"></path></defs><g id="Bulbs" transform="translate(10.000000, 22.000000)"><mask id="Top/Lights-mask" fill="white"><use xlink:href="#Top/Lights-path"></use></mask><use fill="#E1E6E8" xlink:href="#Top/Lights-path"></use><g id="Brown" mask="url(#Top/Lights-mask)" fill="#795548"><g transform="translate(-10.000000, -22.000000)"><rect x="0" y="0" width="100" height="52"></rect></g></g><rect id="Highlite" fill-opacity="0.6" fill="#FFFFFF" mask="url(#Top/Lights-mask)" x="-10" y="-22" width="100" height="40"></rect><rect id="Light" fill-opacity="0.6" fill="#FFFFFF" mask="url(#Top/Lights-mask)" x="14" y="6" width="4" height="8" rx="2"></rect><rect id="Light" fill-opacity="0.6" fill="#FFFFFF" mask="url(#Top/Lights-mask)" x="38" y="6" width="4" height="8" rx="2"></rect><rect id="Light" fill-opacity="0.6" fill="#FFFFFF" mask="url(#Top/Lights-mask)" x="62" y="6" width="4" height="8" rx="2"></rect></g></g></g><g id="Face" transform="translate(25.000000, 44.000000)" width="130px" height="120px"><g id="Face/Square-03" stroke="none" stroke-width="1" fill="none" fill-rule="evenodd"><path d="M18,-2.7000624e-13 L112,-2.91322522e-13 C121.941125,-2.93148677e-13 130,8.0588745 130,18 L130,45.1482908 C130,49.6830734 129.22888,54.1848394 127.719613,58.4610955 L110.238555,107.990762 C107.698575,115.187372 100.896418,120 93.2647285,120 L36.7352715,120 C29.1035817,120 22.3014253,115.187372 19.7614455,107.990762 L2.28038666,58.4610955 C0.771119772,54.1848394 1.50531546e-15,49.6830734 -7.10542736e-15,45.1482908 L-9.9475983e-14,18 C-1.18352406e-13,8.0588745 8.0588745,-2.86048235e-13 18,-3.05533376e-13 Z" id="Face/Square-03-path-1"></path><mask id="Face/Square-03-mask-1" fill="white"><use xlink:href="#Face/Square-03-path-1"></use></mask><use id="Shape" fill="#0076DE" xlink:href="#Face/Square-03-path-1"></use><g id="Cyan" mask="url(#Face/Square-03-mask-1)" fill="#00BCD4"><g transform="translate(-2.000000, -2.000000)"><rect x="0" y="0" width="134" height="124"></rect></g></g><g id="Texture/Circuits" mask="url(#Face/Square-03-mask-1)" stroke="none" stroke-width="1" fill="none" fill-rule="evenodd"><path d="M72.4160437,34 L23,34 L19,34 L19,0 L23,0 L23,30 L72.4160437,30 C73.1876003,28.2340952 74.949681,27 77,27 C79.7614237,27 82,29.2385763 82,32 C82,34.7614237 79.7614237,37 77,37 C74.949681,37 73.1876003,35.7659048 72.4160437,34 Z M11,0 L15,0 L15,18 L11,18 L11,0 Z" id="Beep-Boop" fill-opacity="0.1" fill="#000000"></path><path d="M122,34.5839563 L122,60 L141,60 L141,64 L122,64 L118,64 L118,34.5839563 C116.234095,33.8123997 115,32.050319 115,30 C115,27.2385763 117.238576,25 120,25 C122.761424,25 125,27.2385763 125,30 C125,32.050319 123.765905,33.8123997 122,34.5839563 Z" id="Beep-Boop" fill-opacity="0.2" fill="#FFFFFF"></path><path d="M114,68 L141,68 L141,72 L114,72 L110,72 L110,46 L114,46 L114,68 Z" id="Beep-Boop" fill-opacity="0.2" fill="#000000"></path><path d="M15,103.583956 L15,129 L34,129 L34,133 L15,133 L11,133 L11,103.583956 C9.23409522,102.8124 8,101.050319 8,99 C8,96.2385763 10.2385763,94 13,94 C15.7614237,94 18,96.2385763 18,99 C18,101.050319 16.7659048,102.8124 15,103.583956 Z" id="Beep-Boop" fill-opacity="0.2" fill="#000000" transform="translate(21.000000, 113.500000) scale(-1, 1) translate(-21.000000, -113.500000) "></path></g></g></g><g id="Mouth" transform="translate(52.000000, 124.000000)" width="76px" height="32px"><g id="Mouth/Grill-03" stroke="none" stroke-width="1" fill="none" fill-rule="evenodd"><rect id="Kiss-The-Robot-Beep-Boop" fill-opacity="0.2" fill="#000000" x="4" y="5" width="68" height="22" rx="5"></rect><rect id="Kiss-The-Robot-Beep-Boop" fill="#FFFFFF" x="8" y="9" width="60" height="14" rx="2"></rect><rect id="Bender-Teeth" fill-opacity="0.1" fill="#000000" x="18" y="9" width="4" height="14"></rect><rect id="Bender-Teeth" fill-opacity="0.1" fill="#000000" x="42" y="9" width="4" height="14"></rect><rect id="Bender-Teeth" fill-opacity="0.1" fill="#000000" x="30" y="9" width="4" height="14"></rect><rect id="Bender-Teeth" fill-opacity="0.1" fill="#000000" x="54" y="9" width="4" height="14"></rect></g></g><g id="Eyes" transform="translate(38.000000, 76.000000)" width="104px" height="48px"><g id="Eyes/Glow" stroke="none" stroke-width="1" fill="none" fill-rule="evenodd"><circle id="Eye" fill-opacity="0.1" fill="#FFFFFF" cx="21" cy="30" r="15"></circle><circle id="Eye" fill-opacity="0.1" fill="#FFFFFF" cx="83" cy="30" r="15"></circle><circle id="Eye" fill-opacity="0.1" fill="#FFFFFF" cx="21" cy="30" r="12"></circle><circle id="Eye" fill-opacity="0.1" fill="#FFFFFF" cx="83" cy="30" r="12"></circle><circle id="Eye" fill-opacity="0.8" fill="#FFFFFF" cx="21" cy="30" r="6"></circle><circle id="Eye" fill-opacity="0.8" fill="#FFFFFF" cx="83" cy="30" r="6"></circle><circle id="Eye" fill-opacity="0.8" fill="#FFFFFF" cx="21" cy="30" r="3"></circle><circle id="Eye" fill-opacity="0.8" fill="#FFFFFF" cx="83" cy="30" r="3"></circle></g></g></g></g></g></g></g></svg>