<svg width="300px" height="300px" viewBox="0 0 240 240" version="1.1" xmlns="http://www.w3.org/2000/svg" xmlns:xlink="http://www.w3.org/1999/xlink"><title>Bottt</title><desc>Created with botttsgenerator.com</desc><g id="Bottt" stroke="none" stroke-width="1" fill="none" fill-rule="evenodd"><g id="Circle"><defs><circle id="Circle-path-1" cx="120" cy="120" r="120"></circle><path d="M12,160 C12,226.27417 65.72583,280 132,280 C198.27417,280 252,226.27417 252,160 L264,160 L264,-1.42108547e-14 L-3.19744231e-14,-1.42108547e-14 L-3.19744231e-14,160 L12,160 Z" id="Circle-path-2"></path><path d="M124,144.610951 L124,163 L128,163 L128,163 C167.764502,163 200,195.235498 200,235 L200,244 L0,244 L0,235 C-4.86974701e-15,195.235498 32.235498,163 72,163 L72,163 L76,163 L76,144.610951 C58.7626345,136.422372 46.3722246,119.687011 44.3051388,99.8812385 C38.4803105,99.0577866 34,94.0521096 34,88 L34,74 C34,68.0540074 38.3245733,63.1180731 44,62.1659169 L44,56 L44,56 C44,25.072054 69.072054,5.68137151e-15 100,0 L100,0 L100,0 C130.927946,-5.68137151e-15 156,25.072054 156,56 L156,62.1659169 C161.675427,63.1180731 166,68.0540074 166,74 L166,88 C166,94.0521096 161.51969,99.0577866 155.694861,99.8812385 C153.627775,119.687011 141.237365,136.422372 124,144.610951 Z" id="Circle-path-3"></path></defs><g><g id="Circle" stroke-width="1" fill-rule="evenodd"><mask id="Circle-main-1" fill="white"><use xlink:href="#Circle-path-1"></use></mask><use id="Circle-Background" fill="#E6E6E6" xlink:href="#Circle-path-1"></use><g id="Purple" mask="url(#Circle-main-1)" fill="#9C27B0"><rect id="ðŸ–Color" x="0" y="0" width="240" height="240"></rect></g></g><mask id="Circle-main-2" fill="white"><use xlink:href="#Circle-path-1"></use></mask><g id="Bottt" stroke-width="1" fill-rule="evenodd" mask="url(#Circle-main-2)"><g id="Bottt/Head" stroke="none" stroke-width="1" fill="none" fill-rule="evenodd" transform="translate(30.000000, 33.000000)"><g id="Sides" width="180px" height="76px" transform="translate(0.000000, 66.000000)"><g id="Sides/SquareAsymmetric" stroke="none" stroke-width="1" fill="none" fill-rule="evenodd"><path d="M160,15.0003274 C161.68664,15.0091031 162.317652,15.194108 162.953691,15.5342654 C163.605543,15.8828796 164.11712,16.3944567 164.465735,17.0463086 C164.814349,17.6981604 165,18.3447329 165,20.1277704 L165,39.8722296 C165,41.6552671 164.814349,42.3018396 164.465735,42.9536914 C164.11712,43.6055433 163.605543,44.1171204 162.953691,44.4657346 C162.317652,44.805892 161.68664,44.9908969 160,44.9996726 L160,54.8722296 C160,56.6552671 159.814349,57.3018396 159.465735,57.9536914 C159.11712,58.6055433 158.605543,59.1171204 157.953691,59.4657346 C157.30184,59.8143488 156.655267,60 154.87223,60 L129.12777,60 C127.344733,60 126.69816,59.8143488 126.046309,59.4657346 C125.394457,59.1171204 124.88288,58.6055433 124.534265,57.9536914 C124.185651,57.3018396 124,56.6552671 124,54.8722296 L124,5.1277704 C124,3.34473292 124.185651,2.69816044 124.534265,2.04630859 C124.88288,1.39445674 125.394457,0.882879593 126.046309,0.534265408 C126.69816,0.185651222 127.344733,1.2037061e-16 129.12777,-2.07168062e-16 L154.87223,2.07168062e-16 C156.655267,-1.2037061e-16 157.30184,0.185651222 157.953691,0.534265408 C158.605543,0.882879593 159.11712,1.39445674 159.465735,2.04630859 C159.814349,2.69816044 160,3.34473292 160,5.1277704 L160,15.0003274 Z M10,23 L10,12.1277704 C10,10.3447329 10.1856512,9.69816044 10.5342654,9.04630859 C10.8828796,8.39445674 11.3944567,7.88287959 12.0463086,7.53426541 C12.6981604,7.18565122 13.3447329,7 15.1277704,7 L30.8722296,7 C32.6552671,7 33.3018396,7.18565122 33.9536914,7.53426541 C34.6055433,7.88287959 35.1171204,8.39445674 35.4657346,9.04630859 C35.8143488,9.69816044 36,10.3447329 36,12.1277704 L36,28.1277704 L36,47.8722296 C36,49.6552671 35.8143488,50.3018396 35.4657346,50.9536914 C35.1171204,51.6055433 34.6055433,52.1171204 33.9536914,52.4657346 C33.3018396,52.8143488 32.6552671,53 30.8722296,53 L5.1277704,53 C3.34473292,53 2.69816044,52.8143488 2.04630859,52.4657346 C1.39445674,52.1171204 0.882879593,51.6055433 0.534265408,50.9536914 C0.185651222,50.3018396 8.02470732e-17,49.6552671 -1.38112041e-16,47.8722296 L1.38112041e-16,28.1277704 C-8.02470732e-17,26.3447329 0.185651222,25.6981604 0.534265408,25.0463086 C0.882879593,24.3944567 1.39445674,23.8828796 2.04630859,23.5342654 C2.69816044,23.1856512 3.34473292,23 5.1277704,23 L10,23 Z" id="Sides/SquareAsymmetric-path"></path><g id="Ears" transform="translate(10.000000, 8.000000)"><mask id="Sides/SquareAsymmetric-mask" fill="white"><use xlink:href="#Sides/SquareAsymmetric-path"></use></mask><use fill="#0076DE" xlink:href="#Sides/SquareAsymmetric-path"></use><g id="DeepOrange" mask="url(#Sides/SquareAsymmetric-mask)" fill="#FF5722"><g transform="translate(-10.000000, -8.000000)"><rect x="0" y="0" width="180" height="76"></rect></g></g><rect id="Shadow" fill-opacity="0.1" fill="#000000" mask="url(#Sides/SquareAsymmetric-mask)" x="-10" y="39" width="180" height="29"></rect><circle id="Beep" fill-opacity="0.6" fill="#FFFFFF" mask="url(#Sides/SquareAsymmetric-mask)" cx="151" cy="12" r="5"></circle><circle id="Beep" fill-opacity="0.6" fill="#FFFFFF" mask="url(#Sides/SquareAsymmetric-mask)" cx="151" cy="28" r="5"></circle></g></g></g><g id="Top" transform="translate(41.000000, 0.000000)" width="100px" height="52px"><g id="Top/K-Bot" stroke="none" stroke-width="1" fill="none" fill-rule="evenodd"><defs><path d="M4,18 C7.32929829,28.5297416 11.995965,34.1964083 18,35" id="Top/K-Bot-path-1"></path><path d="M41,25 C44.3292983,31.1939656 48.995965,34.527299 55,35" id="Top/K-Bot-path-2"></path></defs><g id="Group" transform="translate(11.000000, 0.000000)"><path d="M3,51 L75,51 L75,22 C75,10.3599657 67.4713319,1 58.3043478,1 L19.6956522,1 C10.5286681,1 3,10.3599657 3,22 L3,51 Z" id="Case" stroke-opacity="0.32" stroke="#000000" stroke-width="2" fill-opacity="0.5" fill="#FFFFFF"></path><g id="Plankton" transform="translate(9.000000, 10.000000)"><g id="Arm" stroke-width="3.2"><use stroke="#F79420" xlink:href="#Top/K-Bot-path-1"></use><use stroke-opacity="0.12" stroke="#000000" xlink:href="#Top/K-Bot-path-1"></use></g><g id="Arm" transform="translate(48.000000, 30.000000) scale(-1, 1) translate(-48.000000, -30.000000) " stroke-width="3.2"><use stroke="#F79420" xlink:href="#Top/K-Bot-path-2"></use><use stroke-opacity="0.12" stroke="#000000" xlink:href="#Top/K-Bot-path-2"></use></g><path d="M30,0 L30,0 C37.1797017,-1.31888981e-15 43,5.82029825 43,13 L43,42 L17,42 L17,13 C17,5.82029825 22.8202983,1.31888981e-15 30,0 Z" id="Body" fill="#F79420"></path><rect id="Controller-Stick" fill="#2E3539" x="4" y="5" width="2" height="37"></rect><rect id="Controller-Stick" fill="#2E3539" x="55" y="11" width="2" height="31"></rect><circle id="Controller-Knob" fill="#2E3539" cx="5" cy="6" r="5"></circle><circle id="Controller-Knob" fill="#2E3539" cx="56" cy="15" r="5"></circle><circle id="hand" fill="#F79420" cx="4" cy="16" r="4"></circle><circle id="hand" fill="#F79420" cx="56" cy="24" r="4"></circle><path d="M27.303,8.851 L27.303,20.122 L27.901,20.122 C28.0743342,20.122 28.2173328,20.0981669 28.33,20.0505 C28.4426672,20.0028331 28.5683326,19.9053341 28.707,19.758 L32.867,15.299 C32.9970007,15.1603326 33.1269994,15.0476671 33.257,14.961 C33.3870007,14.8743329 33.5603323,14.831 33.777,14.831 L35.883,14.831 L31.034,19.992 C30.9126661,20.1393341 30.7935006,20.2693328 30.6765,20.382 C30.5594994,20.4946672 30.4273341,20.5943329 30.28,20.681 C30.4360008,20.7850005 30.5768327,20.904166 30.7025,21.0385 C30.8281673,21.172834 30.9473328,21.3266658 31.06,21.5 L36.208,28 L34.128,28 C33.9373324,28 33.774834,27.963167 33.6405,27.8895 C33.506166,27.815833 33.3783339,27.7010008 33.257,27.545 L28.928,22.15 C28.7979993,21.9679991 28.6680006,21.8488336 28.538,21.7925 C28.4079993,21.7361664 28.2130013,21.708 27.953,21.708 L27.303,21.708 L27.303,28 L24.976,28 L24.976,8.851 L27.303,8.851 Z" id="k" fill="#FFFFFF"></path></g><rect id="Bottom" fill="#2E3539" x="0" y="46" width="78" height="6"></rect></g></g></g><g id="Face" transform="translate(25.000000, 44.000000)" width="130px" height="120px"><g id="Face/Round-01" stroke="none" stroke-width="1" fill="none" fill-rule="evenodd"><path d="M66,0 C124.351567,0 130.000727,40.6854074 130,78 C129.999351,111.314593 104.534073,120 66,120 C28.5386545,120 2.20992466e-15,111.314593 0,78 C0,40.6854074 7.64843282,6.59631323e-15 66,0 Z" id="Face/Round-01-path"></path><mask id="Face/Round-01-mask" fill="white"><use xlink:href="#Face/Round-01-path"></use></mask><use id="Path-2" fill-opacity="0.8" fill="#000000" xlink:href="#Face/Round-01-path"></use><g id="Brown" mask="url(#Face/Round-01-mask)" fill="#795548"><g transform="translate(-4.000000, -2.000000)"><rect x="0" y="0" width="138" height="124"></rect></g></g><g id="Texture/Dots" mask="url(#Face/Round-01-mask)" stroke="none" stroke-width="1" fill="none" fill-rule="evenodd"><path d="M33.6,96.7586207 C32.440202,96.7586207 31.5,95.8168748 31.5,94.6551724 C31.5,93.49347 32.440202,92.5517241 33.6,92.5517241 C34.759798,92.5517241 35.7,93.49347 35.7,94.6551724 C35.7,95.8168748 34.759798,96.7586207 33.6,96.7586207 Z M33.6,84.137931 C32.440202,84.137931 31.5,83.1961852 31.5,82.0344828 C31.5,80.8727804 32.440202,79.9310345 33.6,79.9310345 C34.759798,79.9310345 35.7,80.8727804 35.7,82.0344828 C35.7,83.1961852 34.759798,84.137931 33.6,84.137931 Z M34.1,109.206897 C32.940202,109.206897 32,108.265151 32,107.103448 C32,105.941746 32.940202,105 34.1,105 C35.259798,105 36.2,105.941746 36.2,107.103448 C36.2,108.265151 35.259798,109.206897 34.1,109.206897 Z M47.1,109.206897 C45.940202,109.206897 45,108.265151 45,107.103448 C45,105.941746 45.940202,105 47.1,105 C48.259798,105 49.2,105.941746 49.2,107.103448 C49.2,108.265151 48.259798,109.206897 47.1,109.206897 Z M27.3,90.4482759 C26.140202,90.4482759 25.2,89.50653 25.2,88.3448276 C25.2,87.1831252 26.140202,86.2413793 27.3,86.2413793 C28.459798,86.2413793 29.4,87.1831252 29.4,88.3448276 C29.4,89.50653 28.459798,90.4482759 27.3,90.4482759 Z M27.1,103.206897 C25.940202,103.206897 25,102.265151 25,101.103448 C25,99.9417459 25.940202,99 27.1,99 C28.259798,99 29.2,99.9417459 29.2,101.103448 C29.2,102.265151 28.259798,103.206897 27.1,103.206897 Z M51.1,103.206897 C49.940202,103.206897 49,102.265151 49,101.103448 C49,99.9417459 49.940202,99 51.1,99 C52.259798,99 53.2,99.9417459 53.2,101.103448 C53.2,102.265151 52.259798,103.206897 51.1,103.206897 Z M39.9,90.4482759 C38.740202,90.4482759 37.8,89.50653 37.8,88.3448276 C37.8,87.1831252 38.740202,86.2413793 39.9,86.2413793 C41.059798,86.2413793 42,87.1831252 42,88.3448276 C42,89.50653 41.059798,90.4482759 39.9,90.4482759 Z M39.9,103.068966 C38.740202,103.068966 37.8,102.12722 37.8,100.965517 C37.8,99.8038148 38.740202,98.862069 39.9,98.862069 C41.059798,98.862069 42,99.8038148 42,100.965517 C42,102.12722 41.059798,103.068966 39.9,103.068966 Z M33.6,71.5172414 C32.440202,71.5172414 31.5,70.5754955 31.5,69.4137931 C31.5,68.2520907 32.440202,67.3103448 33.6,67.3103448 C34.759798,67.3103448 35.7,68.2520907 35.7,69.4137931 C35.7,70.5754955 34.759798,71.5172414 33.6,71.5172414 Z M27.3,65.2068966 C26.140202,65.2068966 25.2,64.2651507 25.2,63.1034483 C25.2,61.9417459 26.140202,61 27.3,61 C28.459798,61 29.4,61.9417459 29.4,63.1034483 C29.4,64.2651507 28.459798,65.2068966 27.3,65.2068966 Z M27.3,77.8275862 C26.140202,77.8275862 25.2,76.8858403 25.2,75.7241379 C25.2,74.5624355 26.140202,73.6206897 27.3,73.6206897 C28.459798,73.6206897 29.4,74.5624355 29.4,75.7241379 C29.4,76.8858403 28.459798,77.8275862 27.3,77.8275862 Z M39.9,77.8275862 C38.740202,77.8275862 37.8,76.8858403 37.8,75.7241379 C37.8,74.5624355 38.740202,73.6206897 39.9,73.6206897 C41.059798,73.6206897 42,74.5624355 42,75.7241379 C42,76.8858403 41.059798,77.8275862 39.9,77.8275862 Z M8.4,96.7586207 C7.24020203,96.7586207 6.3,95.8168748 6.3,94.6551724 C6.3,93.49347 7.24020203,92.5517241 8.4,92.5517241 C9.55979797,92.5517241 10.5,93.49347 10.5,94.6551724 C10.5,95.8168748 9.55979797,96.7586207 8.4,96.7586207 Z M8.4,84.137931 C7.24020203,84.137931 6.3,83.1961852 6.3,82.0344828 C6.3,80.8727804 7.24020203,79.9310345 8.4,79.9310345 C9.55979797,79.9310345 10.5,80.8727804 10.5,82.0344828 C10.5,83.1961852 9.55979797,84.137931 8.4,84.137931 Z M8.4,109.37931 C7.24020203,109.37931 6.3,108.437564 6.3,107.275862 C6.3,106.11416 7.24020203,105.172414 8.4,105.172414 C9.55979797,105.172414 10.5,106.11416 10.5,107.275862 C10.5,108.437564 9.55979797,109.37931 8.4,109.37931 Z M2.1,90.4482759 C0.940202025,90.4482759 0,89.50653 0,88.3448276 C0,87.1831252 0.940202025,86.2413793 2.1,86.2413793 C3.25979797,86.2413793 4.2,87.1831252 4.2,88.3448276 C4.2,89.50653 3.25979797,90.4482759 2.1,90.4482759 Z M2.1,103.068966 C0.940202025,103.068966 0,102.12722 0,100.965517 C0,99.8038148 0.940202025,98.862069 2.1,98.862069 C3.25979797,98.862069 4.2,99.8038148 4.2,100.965517 C4.2,102.12722 3.25979797,103.068966 2.1,103.068966 Z M14.7,90.4482759 C13.540202,90.4482759 12.6,89.50653 12.6,88.3448276 C12.6,87.1831252 13.540202,86.2413793 14.7,86.2413793 C15.859798,86.2413793 16.8,87.1831252 16.8,88.3448276 C16.8,89.50653 15.859798,90.4482759 14.7,90.4482759 Z M14.7,103.068966 C13.540202,103.068966 12.6,102.12722 12.6,100.965517 C12.6,99.8038148 13.540202,98.862069 14.7,98.862069 C15.859798,98.862069 16.8,99.8038148 16.8,100.965517 C16.8,102.12722 15.859798,103.068966 14.7,103.068966 Z M8.4,71.5172414 C7.24020203,71.5172414 6.3,70.5754955 6.3,69.4137931 C6.3,68.2520907 7.24020203,67.3103448 8.4,67.3103448 C9.55979797,67.3103448 10.5,68.2520907 10.5,69.4137931 C10.5,70.5754955 9.55979797,71.5172414 8.4,71.5172414 Z M2.1,77.8275862 C0.940202025,77.8275862 0,76.8858403 0,75.7241379 C0,74.5624355 0.940202025,73.6206897 2.1,73.6206897 C3.25979797,73.6206897 4.2,74.5624355 4.2,75.7241379 C4.2,76.8858403 3.25979797,77.8275862 2.1,77.8275862 Z M14.7,65.2068966 C13.540202,65.2068966 12.6,64.2651507 12.6,63.1034483 C12.6,61.9417459 13.540202,61 14.7,61 C15.859798,61 16.8,61.9417459 16.8,63.1034483 C16.8,64.2651507 15.859798,65.2068966 14.7,65.2068966 Z M14.7,77.8275862 C13.540202,77.8275862 12.6,76.8858403 12.6,75.7241379 C12.6,74.5624355 13.540202,73.6206897 14.7,73.6206897 C15.859798,73.6206897 16.8,74.5624355 16.8,75.7241379 C16.8,76.8858403 15.859798,77.8275862 14.7,77.8275862 Z M21,96.7586207 C19.840202,96.7586207 18.9,95.8168748 18.9,94.6551724 C18.9,93.49347 19.840202,92.5517241 21,92.5517241 C22.159798,92.5517241 23.1,93.49347 23.1,94.6551724 C23.1,95.8168748 22.159798,96.7586207 21,96.7586207 Z M21,84.137931 C19.840202,84.137931 18.9,83.1961852 18.9,82.0344828 C18.9,80.8727804 19.840202,79.9310345 21,79.9310345 C22.159798,79.9310345 23.1,80.8727804 23.1,82.0344828 C23.1,83.1961852 22.159798,84.137931 21,84.137931 Z M21,109.37931 C19.840202,109.37931 18.9,108.437564 18.9,107.275862 C18.9,106.11416 19.840202,105.172414 21,105.172414 C22.159798,105.172414 23.1,106.11416 23.1,107.275862 C23.1,108.437564 22.159798,109.37931 21,109.37931 Z M33.6,122 C32.440202,122 31.5,121.058254 31.5,119.896552 C31.5,118.734849 32.440202,117.793103 33.6,117.793103 C34.759798,117.793103 35.7,118.734849 35.7,119.896552 C35.7,121.058254 34.759798,122 33.6,122 Z M27.3,115.689655 C26.140202,115.689655 25.2,114.747909 25.2,113.586207 C25.2,112.424504 26.140202,111.482759 27.3,111.482759 C28.459798,111.482759 29.4,112.424504 29.4,113.586207 C29.4,114.747909 28.459798,115.689655 27.3,115.689655 Z M39.9,115.689655 C38.740202,115.689655 37.8,114.747909 37.8,113.586207 C37.8,112.424504 38.740202,111.482759 39.9,111.482759 C41.059798,111.482759 42,112.424504 42,113.586207 C42,114.747909 41.059798,115.689655 39.9,115.689655 Z M8.4,122 C7.24020203,122 6.3,121.058254 6.3,119.896552 C6.3,118.734849 7.24020203,117.793103 8.4,117.793103 C9.55979797,117.793103 10.5,118.734849 10.5,119.896552 C10.5,121.058254 9.55979797,122 8.4,122 Z M2.1,115.689655 C0.940202025,115.689655 0,114.747909 0,113.586207 C0,112.424504 0.940202025,111.482759 2.1,111.482759 C3.25979797,111.482759 4.2,112.424504 4.2,113.586207 C4.2,114.747909 3.25979797,115.689655 2.1,115.689655 Z M14.7,115.689655 C13.540202,115.689655 12.6,114.747909 12.6,113.586207 C12.6,112.424504 13.540202,111.482759 14.7,111.482759 C15.859798,111.482759 16.8,112.424504 16.8,113.586207 C16.8,114.747909 15.859798,115.689655 14.7,115.689655 Z M21,122 C19.840202,122 18.9,121.058254 18.9,119.896552 C18.9,118.734849 19.840202,117.793103 21,117.793103 C22.159798,117.793103 23.1,118.734849 23.1,119.896552 C23.1,121.058254 22.159798,122 21,122 Z M21,71.5172414 C19.840202,71.5172414 18.9,70.5754955 18.9,69.4137931 C18.9,68.2520907 19.840202,67.3103448 21,67.3103448 C22.159798,67.3103448 23.1,68.2520907 23.1,69.4137931 C23.1,70.5754955 22.159798,71.5172414 21,71.5172414 Z" id="dots" fill-opacity="0.2" fill="#000000" fill-rule="nonzero"></path><path d="M123.6,35.7586207 C122.440202,35.7586207 121.5,34.8168748 121.5,33.6551724 C121.5,32.49347 122.440202,31.5517241 123.6,31.5517241 C124.759798,31.5517241 125.7,32.49347 125.7,33.6551724 C125.7,34.8168748 124.759798,35.7586207 123.6,35.7586207 Z M123.6,23.137931 C122.440202,23.137931 121.5,22.1961852 121.5,21.0344828 C121.5,19.8727804 122.440202,18.9310345 123.6,18.9310345 C124.759798,18.9310345 125.7,19.8727804 125.7,21.0344828 C125.7,22.1961852 124.759798,23.137931 123.6,23.137931 Z M123.6,48.3793103 C122.440202,48.3793103 121.5,47.4375645 121.5,46.2758621 C121.5,45.1141597 122.440202,44.1724138 123.6,44.1724138 C124.759798,44.1724138 125.7,45.1141597 125.7,46.2758621 C125.7,47.4375645 124.759798,48.3793103 123.6,48.3793103 Z M117.3,29.4482759 C116.140202,29.4482759 115.2,28.50653 115.2,27.3448276 C115.2,26.1831252 116.140202,25.2413793 117.3,25.2413793 C118.459798,25.2413793 119.4,26.1831252 119.4,27.3448276 C119.4,28.50653 118.459798,29.4482759 117.3,29.4482759 Z M117.3,42.0689655 C116.140202,42.0689655 115.2,41.1272196 115.2,39.9655172 C115.2,38.8038148 116.140202,37.862069 117.3,37.862069 C118.459798,37.862069 119.4,38.8038148 119.4,39.9655172 C119.4,41.1272196 118.459798,42.0689655 117.3,42.0689655 Z M129.9,29.4482759 C128.740202,29.4482759 127.8,28.50653 127.8,27.3448276 C127.8,26.1831252 128.740202,25.2413793 129.9,25.2413793 C131.059798,25.2413793 132,26.1831252 132,27.3448276 C132,28.50653 131.059798,29.4482759 129.9,29.4482759 Z M129.9,42.0689655 C128.740202,42.0689655 127.8,41.1272196 127.8,39.9655172 C127.8,38.8038148 128.740202,37.862069 129.9,37.862069 C131.059798,37.862069 132,38.8038148 132,39.9655172 C132,41.1272196 131.059798,42.0689655 129.9,42.0689655 Z M123.6,10.5172414 C122.440202,10.5172414 121.5,9.57549551 121.5,8.4137931 C121.5,7.2520907 122.440202,6.31034483 123.6,6.31034483 C124.759798,6.31034483 125.7,7.2520907 125.7,8.4137931 C125.7,9.57549551 124.759798,10.5172414 123.6,10.5172414 Z M117.3,4.20689655 C116.140202,4.20689655 115.2,3.26515068 115.2,2.10344828 C115.2,0.941745871 116.140202,0 117.3,0 C118.459798,0 119.4,0.941745871 119.4,2.10344828 C119.4,3.26515068 118.459798,4.20689655 117.3,4.20689655 Z M117.3,16.8275862 C116.140202,16.8275862 115.2,15.8858403 115.2,14.7241379 C115.2,13.5624355 116.140202,12.6206897 117.3,12.6206897 C118.459798,12.6206897 119.4,13.5624355 119.4,14.7241379 C119.4,15.8858403 118.459798,16.8275862 117.3,16.8275862 Z M129.9,16.8275862 C128.740202,16.8275862 127.8,15.8858403 127.8,14.7241379 C127.8,13.5624355 128.740202,12.6206897 129.9,12.6206897 C131.059798,12.6206897 132,13.5624355 132,14.7241379 C132,15.8858403 131.059798,16.8275862 129.9,16.8275862 Z M98.4,35.7586207 C97.240202,35.7586207 96.3,34.8168748 96.3,33.6551724 C96.3,32.49347 97.240202,31.5517241 98.4,31.5517241 C99.559798,31.5517241 100.5,32.49347 100.5,33.6551724 C100.5,34.8168748 99.559798,35.7586207 98.4,35.7586207 Z M98.4,23.137931 C97.240202,23.137931 96.3,22.1961852 96.3,21.0344828 C96.3,19.8727804 97.240202,18.9310345 98.4,18.9310345 C99.559798,18.9310345 100.5,19.8727804 100.5,21.0344828 C100.5,22.1961852 99.559798,23.137931 98.4,23.137931 Z M98.4,48.3793103 C97.240202,48.3793103 96.3,47.4375645 96.3,46.2758621 C96.3,45.1141597 97.240202,44.1724138 98.4,44.1724138 C99.559798,44.1724138 100.5,45.1141597 100.5,46.2758621 C100.5,47.4375645 99.559798,48.3793103 98.4,48.3793103 Z M92.1,29.4482759 C90.940202,29.4482759 90,28.50653 90,27.3448276 C90,26.1831252 90.940202,25.2413793 92.1,25.2413793 C93.259798,25.2413793 94.2,26.1831252 94.2,27.3448276 C94.2,28.50653 93.259798,29.4482759 92.1,29.4482759 Z M104.7,29.4482759 C103.540202,29.4482759 102.6,28.50653 102.6,27.3448276 C102.6,26.1831252 103.540202,25.2413793 104.7,25.2413793 C105.859798,25.2413793 106.8,26.1831252 106.8,27.3448276 C106.8,28.50653 105.859798,29.4482759 104.7,29.4482759 Z M104.7,42.0689655 C103.540202,42.0689655 102.6,41.1272196 102.6,39.9655172 C102.6,38.8038148 103.540202,37.862069 104.7,37.862069 C105.859798,37.862069 106.8,38.8038148 106.8,39.9655172 C106.8,41.1272196 105.859798,42.0689655 104.7,42.0689655 Z M98.4,10.5172414 C97.240202,10.5172414 96.3,9.57549551 96.3,8.4137931 C96.3,7.2520907 97.240202,6.31034483 98.4,6.31034483 C99.559798,6.31034483 100.5,7.2520907 100.5,8.4137931 C100.5,9.57549551 99.559798,10.5172414 98.4,10.5172414 Z M92.1,16.8275862 C90.940202,16.8275862 90,15.8858403 90,14.7241379 C90,13.5624355 90.940202,12.6206897 92.1,12.6206897 C93.259798,12.6206897 94.2,13.5624355 94.2,14.7241379 C94.2,15.8858403 93.259798,16.8275862 92.1,16.8275862 Z M104.7,4.20689655 C103.540202,4.20689655 102.6,3.26515068 102.6,2.10344828 C102.6,0.941745871 103.540202,0 104.7,0 C105.859798,0 106.8,0.941745871 106.8,2.10344828 C106.8,3.26515068 105.859798,4.20689655 104.7,4.20689655 Z M104.7,16.8275862 C103.540202,16.8275862 102.6,15.8858403 102.6,14.7241379 C102.6,13.5624355 103.540202,12.6206897 104.7,12.6206897 C105.859798,12.6206897 106.8,13.5624355 106.8,14.7241379 C106.8,15.8858403 105.859798,16.8275862 104.7,16.8275862 Z M111,35.7586207 C109.840202,35.7586207 108.9,34.8168748 108.9,33.6551724 C108.9,32.49347 109.840202,31.5517241 111,31.5517241 C112.159798,31.5517241 113.1,32.49347 113.1,33.6551724 C113.1,34.8168748 112.159798,35.7586207 111,35.7586207 Z M111,23.137931 C109.840202,23.137931 108.9,22.1961852 108.9,21.0344828 C108.9,19.8727804 109.840202,18.9310345 111,18.9310345 C112.159798,18.9310345 113.1,19.8727804 113.1,21.0344828 C113.1,22.1961852 112.159798,23.137931 111,23.137931 Z M111,48.3793103 C109.840202,48.3793103 108.9,47.4375645 108.9,46.2758621 C108.9,45.1141597 109.840202,44.1724138 111,44.1724138 C112.159798,44.1724138 113.1,45.1141597 113.1,46.2758621 C113.1,47.4375645 112.159798,48.3793103 111,48.3793103 Z M123.6,61 C122.440202,61 121.5,60.0582541 121.5,58.8965517 C121.5,57.7348493 122.440202,56.7931034 123.6,56.7931034 C124.759798,56.7931034 125.7,57.7348493 125.7,58.8965517 C125.7,60.0582541 124.759798,61 123.6,61 Z M129.9,54.6896552 C128.740202,54.6896552 127.8,53.7479093 127.8,52.5862069 C127.8,51.4245045 128.740202,50.4827586 129.9,50.4827586 C131.059798,50.4827586 132,51.4245045 132,52.5862069 C132,53.7479093 131.059798,54.6896552 129.9,54.6896552 Z M104.7,54.6896552 C103.540202,54.6896552 102.6,53.7479093 102.6,52.5862069 C102.6,51.4245045 103.540202,50.4827586 104.7,50.4827586 C105.859798,50.4827586 106.8,51.4245045 106.8,52.5862069 C106.8,53.7479093 105.859798,54.6896552 104.7,54.6896552 Z M111,61 C109.840202,61 108.9,60.0582541 108.9,58.8965517 C108.9,57.7348493 109.840202,56.7931034 111,56.7931034 C112.159798,56.7931034 113.1,57.7348493 113.1,58.8965517 C113.1,60.0582541 112.159798,61 111,61 Z M111,10.5172414 C109.840202,10.5172414 108.9,9.57549551 108.9,8.4137931 C108.9,7.2520907 109.840202,6.31034483 111,6.31034483 C112.159798,6.31034483 113.1,7.2520907 113.1,8.4137931 C113.1,9.57549551 112.159798,10.5172414 111,10.5172414 Z" id="dots" fill-opacity="0.1" fill="#000000" fill-rule="nonzero"></path></g></g></g><g id="Mouth" transform="translate(52.000000, 124.000000)" width="76px" height="32px"><g id="Mouth/Grill01" stroke="none" stroke-width="1" fill="none" fill-rule="evenodd"><g id="Grill" transform="translate(12.000000, 12.000000)" fill="#000000"><rect x="0" y="0" width="4" height="8" rx="2"></rect><rect x="24" y="0" width="4" height="8" rx="2"></rect><rect x="12" y="0" width="4" height="8" rx="2"></rect><rect x="36" y="0" width="4" height="8" rx="2"></rect><rect x="48" y="0" width="4" height="8" rx="2"></rect></g></g></g><g id="Eyes" transform="translate(38.000000, 76.000000)" width="104px" height="48px"><g id="Eyes/Arturito" stroke="none" stroke-width="1" fill="none" fill-rule="evenodd"><g id="Radar-Eye" transform="translate(23.000000, 5.000000)"><path d="M50,0 L56,0 L58,32 L50,32 L50,38 L0,38 L9,0 L50,0 Z" id="R2-Eye" fill-opacity="0.8" fill="#0040AE"></path><circle id="Outline" fill-opacity="0.2" fill="#000000" cx="26" cy="16" r="15"></circle><circle id="Eye" fill-opacity="0.6" fill="#000000" cx="26" cy="16" r="12"></circle><circle id="Shine" fill="#FFFFFF" cx="31" cy="9" r="2"></circle></g></g></g></g></g></g></g></g></svg>